<svg width="16" height="18" viewBox="0 0 16 18" fill="none" xmlns="http://www.w3.org/2000/svg">
<path fill-rule="evenodd" clip-rule="evenodd" d="M8 6.1875C6.4467 6.1875 5.1875 7.4467 5.1875 9C5.1875 10.5533 6.4467 11.8125 8 11.8125C9.55332 11.8125 10.8125 10.5533 10.8125 9C10.8125 7.4467 9.55332 6.1875 8 6.1875ZM6.3125 9C6.3125 8.06805 7.06805 7.3125 8 7.3125C8.93195 7.3125 9.6875 8.06805 9.6875 9C9.6875 9.93195 8.93195 10.6875 8 10.6875C7.06805 10.6875 6.3125 9.93195 6.3125 9Z" fill="#252426"/>
<path fill-rule="evenodd" clip-rule="evenodd" d="M7.9809 0.9375C7.6476 0.937493 7.36928 0.937493 7.14083 0.953078C6.903 0.969308 6.67838 1.00429 6.46059 1.0945C5.95522 1.30383 5.5537 1.70534 5.34437 2.21072C5.23539 2.47382 5.20588 2.75109 5.19461 3.05247C5.18555 3.29474 5.06328 3.49688 4.88284 3.60106C4.70241 3.70523 4.46622 3.71005 4.25187 3.59676C3.98523 3.45583 3.73035 3.34274 3.448 3.30557C2.90568 3.23417 2.35719 3.38114 1.92322 3.71414C1.7362 3.85765 1.59358 4.0347 1.46062 4.23255C1.33289 4.42261 1.19376 4.66361 1.02708 4.9523L1.00815 4.98511C0.841466 5.27379 0.702327 5.51478 0.601594 5.72042C0.496737 5.9345 0.414709 6.14654 0.383936 6.38026C0.312536 6.92259 0.459507 7.47106 0.792499 7.90507C0.965839 8.1309 1.19118 8.29515 1.44651 8.45557C1.65184 8.58457 1.76579 8.79157 1.76577 9C1.76577 9.20835 1.65182 9.41535 1.44651 9.54435C1.19115 9.70477 0.965786 9.86902 0.792431 10.0949C0.459431 10.5289 0.312469 11.0773 0.383861 11.6197C0.414634 11.8534 0.496661 12.0655 0.601519 12.2795C0.702251 12.4852 0.841392 12.7261 1.00806 13.0148L1.02701 13.0477C1.19368 13.3363 1.33281 13.5773 1.46055 13.7674C1.59351 13.9652 1.73613 14.1423 1.92315 14.2858C2.35712 14.6188 2.9056 14.7658 3.44793 14.6944C3.73026 14.6572 3.98513 14.5441 4.25175 14.4032C4.46613 14.2899 4.70235 14.2947 4.8828 14.3989C5.06327 14.5031 5.18555 14.7052 5.19461 14.9476C5.20588 15.2489 5.2354 15.5262 5.34437 15.7893C5.5537 16.2946 5.95522 16.6962 6.46059 16.9055C6.67838 16.9957 6.903 17.0307 7.14083 17.0469C7.36928 17.0625 7.6476 17.0625 7.9809 17.0625H8.01878C8.35215 17.0625 8.6304 17.0625 8.85893 17.0469C9.09675 17.0307 9.32138 16.9957 9.53918 16.9055C10.0445 16.6962 10.4461 16.2946 10.6554 15.7893C10.7644 15.5262 10.7939 15.2489 10.8051 14.9475C10.8142 14.7052 10.9364 14.5031 11.1169 14.3989C11.2973 14.2947 11.5336 14.2899 11.7479 14.4031C12.0146 14.5441 12.2694 14.6572 12.5518 14.6943C13.0941 14.7657 13.6426 14.6188 14.0765 14.2858C14.2636 14.1422 14.4062 13.9652 14.5391 13.7674C14.6669 13.5773 14.806 13.3363 14.9726 13.0477L14.9916 13.0148C15.1583 12.7261 15.2975 12.4851 15.3982 12.2794C15.503 12.0654 15.585 11.8534 15.6158 11.6197C15.6872 11.0773 15.5402 10.5288 15.2072 10.0948C15.0339 9.86895 14.8085 9.70477 14.5532 9.54435C14.3479 9.41535 14.234 9.20835 14.234 8.99992C14.234 8.79157 14.3479 8.58465 14.5532 8.45565C14.8086 8.29522 15.034 8.13105 15.2073 7.90507C15.5403 7.47112 15.6873 6.92264 15.6159 6.38031C15.5851 6.1466 15.5031 5.93455 15.3983 5.72047C15.2975 5.51485 15.1584 5.27387 14.9917 4.98521L14.9728 4.95238C14.8061 4.66369 14.6669 4.42266 14.5392 4.2326C14.4062 4.03475 14.2637 3.8577 14.0766 3.71419C13.6427 3.3812 13.0942 3.23423 12.5518 3.30562C12.2695 3.34279 12.0146 3.45587 11.748 3.59679C11.5337 3.71009 11.2974 3.70527 11.117 3.60108C10.9365 3.4969 10.8142 3.29473 10.8051 3.05243C10.7939 2.75106 10.7644 2.4738 10.6554 2.21072C10.4461 1.70534 10.0445 1.30383 9.53918 1.0945C9.32138 1.00429 9.09675 0.969308 8.85893 0.953078C8.6304 0.937493 8.35215 0.937493 8.01878 0.9375H7.9809ZM6.89108 2.13386C6.94898 2.10989 7.03688 2.08779 7.2174 2.07547C7.40303 2.06281 7.64273 2.0625 7.99988 2.0625C8.35703 2.0625 8.59673 2.06281 8.78228 2.07547C8.96288 2.08779 9.05078 2.10989 9.1086 2.13386C9.33833 2.22902 9.52088 2.41152 9.61598 2.64124C9.64605 2.7137 9.67088 2.82665 9.68093 3.09448C9.70313 3.68876 10.0099 4.26097 10.5545 4.57536C11.099 4.88976 11.7479 4.8693 12.2737 4.59141C12.5106 4.46618 12.6209 4.43124 12.6986 4.421C12.9452 4.38855 13.1945 4.45535 13.3917 4.60671C13.4414 4.64484 13.5045 4.70992 13.6055 4.86012C13.7093 5.01452 13.8293 5.22195 14.0079 5.53125C14.1865 5.84056 14.3061 6.04829 14.3879 6.21535C14.4675 6.37787 14.4923 6.46505 14.5005 6.52715C14.533 6.77366 14.4662 7.02298 14.3148 7.22023C14.267 7.28246 14.1817 7.36049 13.9547 7.50307C13.4512 7.8195 13.109 8.3712 13.109 8.99992C13.109 9.62872 13.4511 10.1805 13.9547 10.4969C14.1816 10.6395 14.267 10.7175 14.3147 10.7797C14.4661 10.977 14.5329 11.2263 14.5004 11.4728C14.4923 11.5349 14.4674 11.6221 14.3879 11.7846C14.306 11.9516 14.1864 12.1594 14.0078 12.4687C13.8293 12.778 13.7092 12.9854 13.6054 13.1398C13.5044 13.29 13.4414 13.3551 13.3916 13.3932C13.1944 13.5446 12.9451 13.6114 12.6986 13.579C12.6209 13.5687 12.5105 13.5337 12.2736 13.4086C11.7479 13.1306 11.0989 13.1102 10.5543 13.4246C10.0099 13.739 9.70313 14.3112 9.68093 14.9055C9.67088 15.1733 9.64605 15.2863 9.61598 15.3588C9.52088 15.5884 9.33833 15.771 9.1086 15.8662C9.05078 15.8901 8.96288 15.9122 8.78228 15.9245C8.59673 15.9372 8.35703 15.9375 7.99988 15.9375C7.64273 15.9375 7.40303 15.9372 7.2174 15.9245C7.03688 15.9122 6.94898 15.8901 6.89108 15.8662C6.66143 15.771 6.47889 15.5884 6.38373 15.3588C6.35372 15.2863 6.32884 15.1733 6.31882 14.9055C6.2966 14.3113 5.98986 13.739 5.4453 13.4246C4.90076 13.1102 4.25184 13.1307 3.72606 13.4086C3.48912 13.5338 3.37885 13.5688 3.30109 13.579C3.05457 13.6114 2.80527 13.5446 2.60801 13.3933C2.55831 13.3552 2.49522 13.2901 2.39427 13.1398C2.29051 12.9855 2.1704 12.778 1.99182 12.4687C1.81324 12.1594 1.69366 11.9517 1.61183 11.7847C1.53222 11.6221 1.50741 11.5349 1.49924 11.4728C1.46679 11.2263 1.53359 10.977 1.68495 10.7797C1.7327 10.7176 1.81809 10.6395 2.04503 10.4969C2.54856 10.1806 2.89074 9.6288 2.89077 9.00007C2.89081 8.3712 2.54862 7.81942 2.04504 7.503C1.81815 7.36042 1.73277 7.2824 1.68502 7.22018C1.53366 7.02292 1.46686 6.77362 1.49931 6.5271C1.50749 6.46501 1.5323 6.37781 1.6119 6.2153C1.69374 6.04823 1.81332 5.84051 1.99189 5.5312C2.17047 5.2219 2.29058 5.01447 2.39435 4.86007C2.49529 4.70987 2.55839 4.64479 2.60808 4.60667C2.80534 4.4553 3.05465 4.3885 3.30116 4.42095C3.37893 4.43119 3.4892 4.46612 3.72618 4.59138C4.25193 4.86926 4.90081 4.88971 5.44533 4.57534C5.98986 4.26096 6.2966 3.68878 6.31882 3.09452C6.32884 2.82667 6.35372 2.7137 6.38373 2.64124C6.47889 2.41152 6.66143 2.22902 6.89108 2.13386Z" fill="#252426"/>
</svg>
