<svg width="393" height="852" viewBox="0 0 393 852" fill="none" xmlns="http://www.w3.org/2000/svg">
<rect width="393" height="852" rx="40" fill="#EBE5DA"/>
<path d="M160.297 93H157.938V81.7266H160.297V93ZM161.75 89.7891H164.023C164.133 90.7188 165.102 91.3281 166.352 91.3281C167.609 91.3281 168.469 90.7266 168.469 89.8984C168.469 89.1641 167.93 88.7578 166.57 88.4531L165.102 88.1328C163.023 87.6875 162 86.6328 162 84.9844C162 82.9062 163.797 81.5312 166.312 81.5312C168.938 81.5312 170.586 82.8828 170.625 84.9219H168.414C168.336 83.9688 167.5 83.3906 166.32 83.3906C165.156 83.3906 164.375 83.9453 164.375 84.7812C164.375 85.4766 164.922 85.8672 166.219 86.1641L167.586 86.4531C169.844 86.9375 170.828 87.9062 170.828 89.625C170.828 91.8125 169.055 93.1953 166.258 93.1953C163.547 93.1953 161.82 91.9062 161.75 89.7891ZM177.367 81.5312C180.703 81.5312 182.805 83.7734 182.805 87.3672C182.805 90.9531 180.703 93.1953 177.367 93.1953C174.023 93.1953 171.93 90.9531 171.93 87.3672C171.93 83.7734 174.023 81.5312 177.367 81.5312ZM177.367 83.5C175.523 83.5 174.336 85 174.336 87.3672C174.336 89.7266 175.516 91.2188 177.367 91.2188C179.211 91.2188 180.391 89.7266 180.391 87.3672C180.391 85 179.211 83.5 177.367 83.5ZM184.328 81.7266H188.633C192.016 81.7266 194.008 83.7422 194.008 87.3203C194.008 90.8984 192.016 93 188.633 93H184.328V81.7266ZM186.688 83.6719V91.0469H188.352C190.461 91.0469 191.602 89.7656 191.602 87.3281C191.602 84.9688 190.43 83.6719 188.352 83.6719H186.688ZM195.336 93V84.625H197.539V86.1172H197.586C198.031 85.0781 198.914 84.4688 200.203 84.4688C202.062 84.4688 203.109 85.6406 203.109 87.6016V93H200.828V88.0781C200.828 86.9844 200.312 86.3594 199.289 86.3594C198.266 86.3594 197.617 87.1094 197.617 88.1953V93H195.336ZM208.398 93.1797C205.867 93.1797 204.25 91.5547 204.25 88.8047C204.25 86.0938 205.891 84.4453 208.398 84.4453C210.906 84.4453 212.547 86.0859 212.547 88.8047C212.547 91.5625 210.93 93.1797 208.398 93.1797ZM208.398 91.4375C209.516 91.4375 210.227 90.4922 210.227 88.8125C210.227 87.1484 209.508 86.1875 208.398 86.1875C207.289 86.1875 206.562 87.1484 206.562 88.8125C206.562 90.4922 207.273 91.4375 208.398 91.4375ZM214.336 82.6953H216.617V84.625H218.164V86.3438H216.617V90.3516C216.617 90.9922 216.93 91.2969 217.602 91.2969C217.805 91.2969 218.016 91.2812 218.156 91.2578V92.9375C217.922 92.9922 217.531 93.0312 217.07 93.0312C215.102 93.0312 214.336 92.375 214.336 90.7422V86.3438H213.156V84.625H214.336V82.6953ZM219.453 93V84.625H221.734V93H219.453ZM220.594 83.7031C219.906 83.7031 219.375 83.1797 219.375 82.5234C219.375 81.8594 219.906 81.3438 220.594 81.3438C221.281 81.3438 221.812 81.8594 221.812 82.5234C221.812 83.1797 221.281 83.7031 220.594 83.7031ZM223.867 93V86.3438H222.727V84.6641H223.867V84.0312C223.867 82.3906 224.641 81.625 226.625 81.625C227.047 81.625 227.523 81.6719 227.789 81.7266V83.2344C227.625 83.2031 227.398 83.1875 227.172 83.1875C226.422 83.1875 226.094 83.5156 226.094 84.1094V84.6641H227.758V86.3438H226.148V93H223.867ZM230.031 96.1016C229.953 96.1016 229.242 96.0938 229.172 96.0781V94.3203C229.242 94.3359 229.656 94.3359 229.742 94.3359C230.578 94.3359 230.992 94.0703 231.148 93.4062C231.148 93.375 231.234 93.0391 231.219 93.0078L228.305 84.625H230.812L232.594 91.1719H232.633L234.414 84.625H236.82L233.938 93.1875C233.219 95.3359 232.172 96.1016 230.031 96.1016Z" fill="#1B1B1B"/>
<path d="M81.9062 202.039L74.4141 229H66.6211L56.1758 189.543H64.7344L70.9414 218.117H71.1602L78.543 189.543H85.5156L92.8984 218.117H93.1172L99.3516 189.543H107.91L97.4375 229H89.6445L82.1523 202.039H81.9062ZM111.82 229V199.688H119.805V229H111.82ZM115.812 196.461C113.406 196.461 111.547 194.629 111.547 192.332C111.547 190.008 113.406 188.203 115.812 188.203C118.219 188.203 120.078 190.008 120.078 192.332C120.078 194.629 118.219 196.461 115.812 196.461ZM127.27 192.934H135.254V199.688H140.668V205.703H135.254V219.73C135.254 221.973 136.348 223.039 138.699 223.039C139.41 223.039 140.148 222.984 140.641 222.902V228.781C139.82 228.973 138.453 229.109 136.84 229.109C129.949 229.109 127.27 226.812 127.27 221.098V205.703H123.141V199.688H127.27V192.934ZM156.09 223.695C159.562 223.695 162.434 221.426 162.434 218.254V216.121L156.254 216.504C153.273 216.723 151.578 218.062 151.578 220.141C151.578 222.328 153.383 223.695 156.09 223.695ZM153.465 229.465C147.887 229.465 143.648 225.855 143.648 220.578C143.648 215.246 147.75 212.156 155.051 211.719L162.434 211.281V209.34C162.434 206.605 160.52 205.02 157.512 205.02C154.531 205.02 152.645 206.496 152.262 208.656H144.961C145.262 202.969 150.102 199.059 157.867 199.059C165.387 199.059 170.281 202.941 170.281 208.848V229H162.57V224.516H162.406C160.766 227.633 157.129 229.465 153.465 229.465ZM183.57 199.688V230.367C183.57 236.301 179.934 239.418 173.07 239.418C172.441 239.418 171.238 239.363 170.883 239.309V233.43C171.074 233.457 171.621 233.484 171.895 233.484C174.547 233.484 175.586 232.527 175.586 230.148V199.688H183.57ZM179.578 196.461C177.172 196.461 175.312 194.629 175.312 192.332C175.312 190.008 177.172 188.203 179.578 188.203C181.984 188.203 183.844 190.008 183.844 192.332C183.844 194.629 181.984 196.461 179.578 196.461ZM194.781 237.641H188.793L190.844 222.219H198.445L194.781 237.641Z" fill="#1B1B1B"/>
<path d="M55.7886 259V257.73L62.3462 248.69V248.624H55.9878V247.022H64.6289V248.292L58.0962 257.332V257.39H64.7866V259H55.7886ZM69.5181 257.73C70.7715 257.73 71.751 256.867 71.751 255.729V255.041L69.6011 255.173C68.5303 255.248 67.9243 255.721 67.9243 256.468C67.9243 257.232 68.5552 257.73 69.5181 257.73ZM69.02 259.149C67.3101 259.149 66.1147 258.087 66.1147 256.518C66.1147 254.991 67.2852 254.053 69.3604 253.937L71.751 253.795V253.123C71.751 252.152 71.0952 251.571 69.9995 251.571C68.9619 251.571 68.3145 252.069 68.1567 252.849H66.4634C66.563 251.272 67.9077 250.11 70.0659 250.11C72.1826 250.11 73.5356 251.23 73.5356 252.982V259H71.8174V257.564H71.7759C71.2695 258.535 70.1655 259.149 69.02 259.149ZM75.3452 259V247.022H77.1382V259H75.3452ZM82.7329 259.166C80.2344 259.166 78.5908 257.448 78.5908 254.634C78.5908 251.828 80.2427 250.11 82.7329 250.11C85.2231 250.11 86.875 251.828 86.875 254.634C86.875 257.448 85.2314 259.166 82.7329 259.166ZM82.7329 257.688C84.144 257.688 85.0488 256.576 85.0488 254.634C85.0488 252.7 84.1357 251.587 82.7329 251.587C81.3301 251.587 80.417 252.7 80.417 254.634C80.417 256.576 81.3301 257.688 82.7329 257.688ZM91.98 257.547C93.3828 257.547 94.3042 256.41 94.3042 254.609C94.3042 252.816 93.3828 251.637 91.98 251.637C90.6021 251.637 89.7056 252.791 89.7056 254.609C89.7056 256.435 90.6021 257.547 91.98 257.547ZM91.9966 262.287C89.938 262.287 88.4106 261.191 88.1865 259.681H89.9878C90.2451 260.411 91.042 260.893 92.063 260.893C93.4658 260.893 94.2959 260.096 94.2959 258.9V257.464H94.2627C93.7729 258.411 92.7437 259.033 91.4985 259.033C89.3071 259.033 87.8711 257.323 87.8711 254.601C87.8711 251.853 89.2988 250.126 91.54 250.126C92.7769 250.126 93.7896 250.749 94.3208 251.762H94.354V250.268H96.0972V258.842C96.0972 260.926 94.4868 262.287 91.9966 262.287ZM105.361 250.268V259H103.643V257.522H103.601C103.12 258.568 102.231 259.158 100.895 259.158C98.9941 259.158 97.832 257.921 97.832 255.92V250.268H99.625V255.572C99.625 256.9 100.256 257.614 101.493 257.614C102.788 257.614 103.568 256.717 103.568 255.356V250.268H105.361ZM108.988 250.268V259.415C108.988 261.191 108.067 262.038 106.133 262.038C106.05 262.038 105.768 262.038 105.718 262.021V260.61C105.751 260.61 105.942 260.619 105.975 260.619C106.863 260.619 107.195 260.287 107.195 259.407V250.268H108.988ZM108.092 248.989C107.519 248.989 107.054 248.533 107.054 247.968C107.054 247.396 107.519 246.939 108.092 246.939C108.673 246.939 109.138 247.396 109.138 247.968C109.138 248.533 108.673 248.989 108.092 248.989ZM114.118 252.741C114.118 251.181 115.496 250.11 117.538 250.11C119.48 250.11 120.842 251.197 120.9 252.75H119.215C119.132 251.961 118.493 251.471 117.488 251.471C116.517 251.471 115.87 251.944 115.87 252.633C115.87 253.173 116.301 253.538 117.206 253.762L118.675 254.103C120.435 254.526 121.099 255.19 121.099 256.477C121.099 258.07 119.613 259.166 117.472 259.166C115.405 259.166 114.035 258.095 113.894 256.493H115.67C115.812 257.332 116.459 257.796 117.555 257.796C118.634 257.796 119.298 257.348 119.298 256.643C119.298 256.086 118.966 255.779 118.053 255.547L116.492 255.165C114.915 254.783 114.118 253.961 114.118 252.741ZM122.552 259V250.268H124.345V259H122.552ZM123.448 248.989C122.875 248.989 122.411 248.533 122.411 247.968C122.411 247.396 122.875 246.939 123.448 246.939C124.029 246.939 124.494 247.396 124.494 247.968C124.494 248.533 124.029 248.989 123.448 248.989ZM131.359 262.536C130.222 262.536 129.383 261.905 129.383 260.942C129.383 260.295 129.773 259.664 130.487 259.149V259.116C130.338 259.149 130.139 259.166 129.906 259.166C127.341 259.166 125.789 257.431 125.789 254.675C125.789 251.936 127.366 250.11 129.832 250.11C132.255 250.11 133.766 251.82 133.766 254.468V255.082H127.599V255.19C127.599 256.709 128.512 257.713 129.948 257.713C130.969 257.713 131.724 257.199 131.965 256.435H133.667C133.5 257.415 132.828 258.12 132.147 258.668C131.309 259.332 130.786 259.938 130.786 260.552C130.786 261.092 131.201 261.366 131.757 261.366C131.998 261.366 132.23 261.333 132.405 261.291V262.378C132.23 262.461 131.84 262.536 131.359 262.536ZM129.832 251.554C128.578 251.554 127.698 252.509 127.607 253.829H131.973C131.932 252.492 131.085 251.554 129.832 251.554ZM143.262 259.149C141.984 259.149 140.996 258.527 140.457 257.514H140.423V259H138.68V247.022H140.473V251.753H140.515C141.038 250.741 142.034 250.126 143.271 250.126C145.47 250.126 146.906 251.87 146.906 254.634C146.906 257.406 145.479 259.149 143.262 259.149ZM142.781 251.637C141.419 251.637 140.465 252.833 140.465 254.634C140.465 256.452 141.419 257.63 142.781 257.63C144.192 257.63 145.063 256.485 145.063 254.634C145.063 252.799 144.192 251.637 142.781 251.637ZM148.94 262.254C148.799 262.254 148.342 262.237 148.209 262.212V260.76C148.342 260.793 148.641 260.793 148.791 260.793C149.629 260.793 150.069 260.444 150.343 259.548C150.343 259.531 150.5 259.017 150.5 259.008L147.346 250.268H149.289L151.505 257.373H151.53L153.746 250.268H155.639L152.36 259.457C151.613 261.573 150.758 262.254 148.94 262.254ZM162.022 254.011L165.55 250.268H167.658L164.039 254.028L167.799 259H165.716L162.752 255.124L162.005 255.862V259H160.212V247.022H162.005V254.011H162.022ZM172.066 259.166C169.567 259.166 167.924 257.448 167.924 254.634C167.924 251.828 169.576 250.11 172.066 250.11C174.556 250.11 176.208 251.828 176.208 254.634C176.208 257.448 174.564 259.166 172.066 259.166ZM172.066 257.688C173.477 257.688 174.382 256.576 174.382 254.634C174.382 252.7 173.469 251.587 172.066 251.587C170.663 251.587 169.75 252.7 169.75 254.634C169.75 256.576 170.663 257.688 172.066 257.688ZM177.594 259V250.268H179.304V251.729H179.346C179.819 250.732 180.749 250.118 182.093 250.118C184.019 250.118 185.123 251.347 185.123 253.347V259H183.322V253.696C183.322 252.384 182.708 251.662 181.462 251.662C180.201 251.662 179.387 252.559 179.387 253.912V259H177.594ZM187.381 248.201H189.182V250.268H190.842V251.687H189.182V256.501C189.182 257.257 189.514 257.597 190.245 257.597C190.427 257.597 190.718 257.581 190.834 257.556V258.975C190.635 259.025 190.236 259.058 189.838 259.058C188.07 259.058 187.381 258.386 187.381 256.701V251.687H186.111V250.268H187.381V248.201ZM193.183 262.254C193.042 262.254 192.585 262.237 192.453 262.212V260.76C192.585 260.793 192.884 260.793 193.034 260.793C193.872 260.793 194.312 260.444 194.586 259.548C194.586 259.531 194.744 259.017 194.744 259.008L191.589 250.268H193.532L195.748 257.373H195.773L197.989 250.268H199.882L196.603 259.457C195.856 261.573 195.001 262.254 193.183 262.254ZM200.936 259V250.268H202.646V251.729H202.688C203.161 250.732 204.09 250.118 205.435 250.118C207.361 250.118 208.465 251.347 208.465 253.347V259H206.664V253.696C206.664 252.384 206.049 251.662 204.804 251.662C203.542 251.662 202.729 252.559 202.729 253.912V259H200.936ZM217.687 250.268V259H215.969V257.522H215.927C215.446 258.568 214.558 259.158 213.221 259.158C211.32 259.158 210.158 257.921 210.158 255.92V250.268H211.951V255.572C211.951 256.9 212.582 257.614 213.819 257.614C215.114 257.614 215.894 256.717 215.894 255.356V250.268H217.687ZM223.215 259.166C220.717 259.166 219.073 257.448 219.073 254.634C219.073 251.828 220.725 250.11 223.215 250.11C225.706 250.11 227.357 251.828 227.357 254.634C227.357 257.448 225.714 259.166 223.215 259.166ZM223.215 257.688C224.626 257.688 225.531 256.576 225.531 254.634C225.531 252.7 224.618 251.587 223.215 251.587C221.812 251.587 220.899 252.7 220.899 254.634C220.899 256.576 221.812 257.688 223.215 257.688ZM240.232 250.268L237.841 259H235.974L234.139 252.459H234.098L232.28 259H230.429L228.03 250.268H229.823L231.417 257.141H231.45L233.268 250.268H234.994L236.82 257.141H236.862L238.456 250.268H240.232ZM244.233 257.73C245.486 257.73 246.466 256.867 246.466 255.729V255.041L244.316 255.173C243.245 255.248 242.639 255.721 242.639 256.468C242.639 257.232 243.27 257.73 244.233 257.73ZM243.735 259.149C242.025 259.149 240.83 258.087 240.83 256.518C240.83 254.991 242 254.053 244.075 253.937L246.466 253.795V253.123C246.466 252.152 245.81 251.571 244.714 251.571C243.677 251.571 243.029 252.069 242.872 252.849H241.178C241.278 251.272 242.623 250.11 244.781 250.11C246.897 250.11 248.25 251.23 248.25 252.982V259H246.532V257.564H246.491C245.984 258.535 244.88 259.149 243.735 259.149ZM257.489 253.272H255.779C255.597 252.343 254.899 251.604 253.729 251.604C252.343 251.604 251.43 252.758 251.43 254.634C251.43 256.551 252.351 257.664 253.746 257.664C254.85 257.664 255.572 257.058 255.779 256.045H257.506C257.315 257.904 255.829 259.166 253.729 259.166C251.23 259.166 249.604 257.456 249.604 254.634C249.604 251.861 251.23 250.11 253.712 250.11C255.962 250.11 257.332 251.554 257.489 253.272ZM254.418 249.022H252.916L254.692 246.507H256.493L254.418 249.022Z" fill="#1B1B1B"/>
<rect x="45" y="541" width="313" height="68" rx="14" fill="#E3D7C1" stroke="#D1C0A0" stroke-width="2"/>
<path d="M71.3438 580H70.0254V569.431H71.3438V574.587H71.417L76.0825 569.431H77.7451L73.4019 574.111L78.1333 580H76.4487L72.4863 575.049L71.3438 576.309V580ZM79.1221 580V569.431H80.3965V580H79.1221ZM88.3726 572.383V580H87.1641V578.762H87.1348C86.6807 579.641 85.8896 580.132 84.7178 580.132C83.0552 580.132 82.0811 579.055 82.0811 577.327V572.383H83.3555V577.1C83.3555 578.337 83.9341 579.004 85.1133 579.004C86.3511 579.004 87.0981 578.154 87.0981 576.858V572.383H88.3726ZM96.356 574.88H95.1108C94.9277 574.053 94.2832 573.372 93.1626 573.372C91.8442 573.372 90.9507 574.463 90.9507 576.191C90.9507 577.964 91.8589 579.011 93.1772 579.011C94.2173 579.011 94.8984 578.462 95.1182 577.546H96.3706C96.1729 579.062 94.8984 580.132 93.1699 580.132C91.0605 580.132 89.6543 578.645 89.6543 576.191C89.6543 573.789 91.0532 572.251 93.1553 572.251C95.0596 572.251 96.1948 573.511 96.356 574.88ZM97.3813 580V579.092L101.6 573.452V573.43H97.3887V572.383H103.043V573.313L98.8535 578.931V578.953H103.065V580H97.3813ZM114.703 580L113.641 576.975H109.437L108.375 580H106.991L110.887 569.431H112.191L116.087 580H114.703ZM111.517 571.035L109.825 575.854H113.253L111.561 571.035H111.517ZM117.296 569.431H121.068C123.053 569.431 124.452 570.823 124.452 572.822C124.452 574.829 123.038 576.228 121.053 576.228H118.614V580H117.296V569.431ZM118.614 570.603V575.056H120.724C122.232 575.056 123.097 574.229 123.097 572.822C123.097 571.423 122.24 570.603 120.724 570.603H118.614ZM127.286 580H125.968V569.431H127.286V580Z" fill="#9D8C6D"/>
<g filter="url(#filter0_d_1_2)">
<rect x="44" y="718" width="315" height="70" rx="15" fill="#F0BC6E"/>
</g>
<path d="M164.928 760V758.506L172.643 747.871V747.793H165.162V745.908H175.328V747.402L167.643 758.037V758.105H175.514V760H164.928ZM181.08 758.506C182.555 758.506 183.707 757.49 183.707 756.152V755.342L181.178 755.498C179.918 755.586 179.205 756.143 179.205 757.021C179.205 757.92 179.947 758.506 181.08 758.506ZM180.494 760.176C178.482 760.176 177.076 758.926 177.076 757.08C177.076 755.283 178.453 754.18 180.895 754.043L183.707 753.877V753.086C183.707 751.943 182.936 751.26 181.646 751.26C180.426 751.26 179.664 751.846 179.479 752.764H177.486C177.604 750.908 179.186 749.541 181.725 749.541C184.215 749.541 185.807 750.859 185.807 752.92V760H183.785V758.311H183.736C183.141 759.453 181.842 760.176 180.494 760.176ZM187.936 760V745.908H190.045V760H187.936ZM196.627 760.195C193.688 760.195 191.754 758.174 191.754 754.863C191.754 751.562 193.697 749.541 196.627 749.541C199.557 749.541 201.5 751.562 201.5 754.863C201.5 758.174 199.566 760.195 196.627 760.195ZM196.627 758.457C198.287 758.457 199.352 757.148 199.352 754.863C199.352 752.588 198.277 751.279 196.627 751.279C194.977 751.279 193.902 752.588 193.902 754.863C193.902 757.148 194.977 758.457 196.627 758.457ZM207.506 758.291C209.156 758.291 210.24 756.953 210.24 754.834C210.24 752.725 209.156 751.338 207.506 751.338C205.885 751.338 204.83 752.695 204.83 754.834C204.83 756.982 205.885 758.291 207.506 758.291ZM207.525 763.867C205.104 763.867 203.307 762.578 203.043 760.801H205.162C205.465 761.66 206.402 762.227 207.604 762.227C209.254 762.227 210.23 761.289 210.23 759.883V758.193H210.191C209.615 759.307 208.404 760.039 206.939 760.039C204.361 760.039 202.672 758.027 202.672 754.824C202.672 751.592 204.352 749.561 206.988 749.561C208.443 749.561 209.635 750.293 210.26 751.484H210.299V749.727H212.35V759.814C212.35 762.266 210.455 763.867 207.525 763.867ZM223.248 749.727V760H221.227V758.262H221.178C220.611 759.492 219.566 760.186 217.994 760.186C215.758 760.186 214.391 758.73 214.391 756.377V749.727H216.5V755.967C216.5 757.529 217.242 758.369 218.697 758.369C220.221 758.369 221.139 757.314 221.139 755.713V749.727H223.248ZM227.516 749.727V760.488C227.516 762.578 226.432 763.574 224.156 763.574C224.059 763.574 223.727 763.574 223.668 763.555V761.895C223.707 761.895 223.932 761.904 223.971 761.904C225.016 761.904 225.406 761.514 225.406 760.479V749.727H227.516ZM226.461 748.223C225.787 748.223 225.24 747.686 225.24 747.021C225.24 746.348 225.787 745.811 226.461 745.811C227.145 745.811 227.691 746.348 227.691 747.021C227.691 747.686 227.145 748.223 226.461 748.223Z" fill="#1B1B1B"/>
<path d="M242.951 631.502C242.951 633.787 241.621 635.141 239.365 635.141C237.004 635.141 235.492 633.418 235.492 630.729C235.492 628.086 236.998 626.404 239.365 626.404C241.193 626.404 242.582 627.488 242.898 629.17H241.791C241.439 628.027 240.555 627.377 239.365 627.377C237.625 627.377 236.576 628.631 236.576 630.723C236.576 632.85 237.643 634.168 239.365 634.168C240.865 634.168 241.896 633.195 241.896 631.777V631.625H239.512V630.699H242.951V631.502ZM246.455 635.105C244.902 635.105 243.848 633.863 243.848 631.953C243.848 630.043 244.896 628.801 246.432 628.801C247.305 628.801 248.008 629.229 248.371 629.896H248.395V626.545H249.414V635H248.441V633.969H248.424C248.031 634.672 247.334 635.105 246.455 635.105ZM246.648 629.697C245.57 629.697 244.891 630.576 244.891 631.953C244.891 633.336 245.57 634.209 246.648 634.209C247.697 634.209 248.4 633.318 248.4 631.953C248.4 630.594 247.697 629.697 246.648 629.697ZM250.662 635V634.273L254.037 629.762V629.744H250.668V628.906H255.191V629.65L251.84 634.145V634.162H255.209V635H250.662ZM256.457 635V628.906H257.477V635H256.457ZM256.967 627.881C256.621 627.881 256.334 627.594 256.334 627.248C256.334 626.896 256.621 626.615 256.967 626.615C257.318 626.615 257.605 626.896 257.605 627.248C257.605 627.594 257.318 627.881 256.967 627.881ZM261.297 629.686C260.342 629.686 259.674 630.418 259.609 631.432H262.92C262.896 630.412 262.258 629.686 261.297 629.686ZM262.896 633.254H263.898C263.723 634.32 262.691 635.105 261.361 635.105C259.615 635.105 258.555 633.893 258.555 631.977C258.555 630.084 259.633 628.801 261.314 628.801C262.961 628.801 263.975 629.996 263.975 631.842V632.229H259.604V632.287C259.604 633.453 260.289 634.221 261.385 634.221C262.158 634.221 262.727 633.828 262.896 633.254ZM267.338 635V634.273L270.713 629.762V629.744H267.344V628.906H271.867V629.65L268.516 634.145V634.162H271.885V635H267.338ZM273.021 635V628.906H273.982V629.879H274.006C274.346 629.223 274.996 628.801 275.939 628.801C277.275 628.801 278.049 629.662 278.049 631.045V635H277.029V631.227C277.029 630.242 276.566 629.703 275.629 629.703C274.668 629.703 274.041 630.383 274.041 631.414V635H273.021ZM281.359 634.238C282.32 634.238 283.059 633.564 283.059 632.686V632.188L281.43 632.287C280.609 632.34 280.141 632.703 280.141 633.277C280.141 633.857 280.627 634.238 281.359 634.238ZM281.131 635.105C279.918 635.105 279.104 634.373 279.104 633.277C279.104 632.234 279.906 631.578 281.312 631.496L283.059 631.396V630.887C283.059 630.143 282.566 629.697 281.723 629.697C280.938 629.697 280.445 630.066 280.316 630.664H279.332C279.402 629.609 280.305 628.801 281.746 628.801C283.176 628.801 284.078 629.574 284.078 630.787V635H283.111V633.951H283.088C282.725 634.648 281.951 635.105 281.131 635.105ZM285.426 635V626.545H286.445V635H285.426ZM290.266 629.686C289.311 629.686 288.643 630.418 288.578 631.432H291.889C291.865 630.412 291.227 629.686 290.266 629.686ZM291.865 633.254H292.867C292.691 634.32 291.66 635.105 290.33 635.105C288.584 635.105 287.523 633.893 287.523 631.977C287.523 630.084 288.602 628.801 290.283 628.801C291.93 628.801 292.943 629.996 292.943 631.842V632.229H288.572V632.287C288.572 633.453 289.258 634.221 290.354 634.221C291.127 634.221 291.695 633.828 291.865 633.254ZM293.846 635V634.273L297.221 629.762V629.744H293.852V628.906H298.375V629.65L295.023 634.145V634.162H298.393V635H293.846ZM296.582 628.027H295.691L296.922 626.27H298.023L296.582 628.027ZM304.416 630.904H303.42C303.273 630.242 302.758 629.697 301.861 629.697C300.807 629.697 300.092 630.57 300.092 631.953C300.092 633.371 300.818 634.209 301.873 634.209C302.705 634.209 303.25 633.77 303.426 633.037H304.428C304.27 634.25 303.25 635.105 301.867 635.105C300.18 635.105 299.055 633.916 299.055 631.953C299.055 630.031 300.174 628.801 301.855 628.801C303.379 628.801 304.287 629.809 304.416 630.904ZM302.307 628.027H301.416L302.646 626.27H303.748L302.307 628.027ZM308.898 631.613L311.594 628.906H312.83L310.188 631.537L312.912 635H311.729L309.467 632.164L308.898 632.703V635H307.879V626.545H308.898V631.613ZM313.703 635V626.545H314.723V635H313.703ZM321.104 628.906V635H320.137V634.01H320.113C319.75 634.713 319.117 635.105 318.18 635.105C316.85 635.105 316.07 634.244 316.07 632.861V628.906H317.09V632.68C317.09 633.67 317.553 634.203 318.496 634.203C319.486 634.203 320.084 633.523 320.084 632.486V628.906H321.104ZM327.49 630.904H326.494C326.348 630.242 325.832 629.697 324.936 629.697C323.881 629.697 323.166 630.57 323.166 631.953C323.166 633.371 323.893 634.209 324.947 634.209C325.779 634.209 326.324 633.77 326.5 633.037H327.502C327.344 634.25 326.324 635.105 324.941 635.105C323.254 635.105 322.129 633.916 322.129 631.953C322.129 630.031 323.248 628.801 324.93 628.801C326.453 628.801 327.361 629.809 327.49 630.904ZM328.311 635V634.273L331.686 629.762V629.744H328.316V628.906H332.84V629.65L329.488 634.145V634.162H332.857V635H328.311ZM342.168 635L341.318 632.58H337.955L337.105 635H335.998L339.115 626.545H340.158L343.275 635H342.168ZM339.619 627.828L338.266 631.684H341.008L339.654 627.828H339.619ZM344.242 626.545H347.26C348.848 626.545 349.967 627.658 349.967 629.258C349.967 630.863 348.836 631.982 347.248 631.982H345.297V635H344.242V626.545ZM345.297 627.482V631.045H346.984C348.191 631.045 348.883 630.383 348.883 629.258C348.883 628.139 348.197 627.482 346.984 627.482H345.297ZM352.234 635H351.18V626.545H352.234V635ZM353.383 628.754C353.447 627.488 354.291 626.48 355.938 626.48C357.414 626.48 358.422 627.395 358.422 628.602C358.422 629.521 357.947 630.172 357.197 630.623C356.453 631.062 356.242 631.391 356.242 632.006V632.387H355.217V631.848C355.211 631.074 355.586 630.547 356.389 630.066C357.068 629.65 357.332 629.281 357.332 628.654C357.332 627.928 356.77 627.395 355.896 627.395C355.012 627.395 354.449 627.916 354.385 628.754H353.383ZM355.732 635.059C355.357 635.059 355.064 634.766 355.064 634.391C355.064 634.01 355.357 633.723 355.732 633.723C356.113 633.723 356.4 634.01 356.4 634.391C356.4 634.766 356.113 635.059 355.732 635.059Z" fill="#817359"/>
<rect x="45" y="439" width="313" height="68" rx="14" fill="#E3D7C1" stroke="#D1C0A0" stroke-width="2"/>
<path d="M71.3291 478H70.0254V467.431H71.3071L77.0933 475.729H77.1592V467.431H78.4629V478H77.1812L71.395 469.731H71.3291V478ZM82.6084 477.048C83.8096 477.048 84.7324 476.206 84.7324 475.107V474.484L82.6963 474.609C81.6709 474.675 81.085 475.129 81.085 475.847C81.085 476.572 81.6929 477.048 82.6084 477.048ZM82.3228 478.132C80.8066 478.132 79.7886 477.216 79.7886 475.847C79.7886 474.543 80.792 473.723 82.5498 473.62L84.7324 473.496V472.858C84.7324 471.928 84.1172 471.372 83.0625 471.372C82.0811 471.372 81.4658 471.833 81.3047 472.58H80.0742C80.1621 471.262 81.29 470.251 83.0918 470.251C84.8789 470.251 86.0068 471.218 86.0068 472.734V478H84.7983V476.689H84.769C84.3149 477.561 83.3481 478.132 82.3228 478.132ZM87.3911 478V477.092L91.6099 471.452V471.43H87.3984V470.383H93.0527V471.313L88.8633 476.931V476.953H93.0747V478H87.3911ZM104.259 470.383L102.135 478H100.838L99.1172 472.104H99.0879L97.374 478H96.0776L93.9463 470.383H95.2134L96.7368 476.579H96.7661L98.4873 470.383H99.7178L101.446 476.579H101.476L102.999 470.383H104.259ZM107.672 477.048C108.873 477.048 109.796 476.206 109.796 475.107V474.484L107.76 474.609C106.734 474.675 106.148 475.129 106.148 475.847C106.148 476.572 106.756 477.048 107.672 477.048ZM107.386 478.132C105.87 478.132 104.852 477.216 104.852 475.847C104.852 474.543 105.855 473.723 107.613 473.62L109.796 473.496V472.858C109.796 471.928 109.181 471.372 108.126 471.372C107.145 471.372 106.529 471.833 106.368 472.58H105.138C105.226 471.262 106.354 470.251 108.155 470.251C109.942 470.251 111.07 471.218 111.07 472.734V478H109.862V476.689H109.833C109.378 477.561 108.412 478.132 107.386 478.132ZM122.02 470.383V478H120.812V476.762H120.782C120.328 477.641 119.537 478.132 118.365 478.132C116.703 478.132 115.729 477.055 115.729 475.327V470.383H117.003V475.1C117.003 476.337 117.582 477.004 118.761 477.004C119.999 477.004 120.746 476.154 120.746 474.858V470.383H122.02ZM123.514 478V477.092L127.733 471.452V471.43H123.521V470.383H129.176V471.313L124.986 476.931V476.953H129.198V478H123.514ZM126.356 469.204C125.858 469.204 125.448 468.793 125.448 468.295C125.448 467.797 125.858 467.387 126.356 467.387C126.854 467.387 127.264 467.797 127.264 468.295C127.264 468.793 126.854 469.204 126.356 469.204ZM131.322 480.849C131.168 480.849 130.912 480.834 130.772 480.805V479.736C130.912 479.765 131.109 479.772 131.271 479.772C131.981 479.772 132.376 479.428 132.669 478.542L132.845 478.007L130.033 470.383H131.395L133.504 476.726H133.526L135.636 470.383H136.976L133.98 478.535C133.329 480.314 132.699 480.849 131.322 480.849ZM138.397 468.544H139.671V470.383H141.151V471.43H139.671V475.957C139.671 476.652 139.964 476.967 140.616 476.967C140.763 476.967 141.056 476.945 141.144 476.931V478C140.99 478.037 140.638 478.059 140.338 478.059C138.939 478.059 138.397 477.487 138.397 476.022V471.43H137.262V470.383H138.397V468.544ZM143.854 473.767L147.223 470.383H148.768L145.465 473.671L148.871 478H147.391L144.564 474.455L143.854 475.129V478H142.579V467.431H143.854V473.767ZM152.584 478.132C150.475 478.132 149.054 476.616 149.054 474.191C149.054 471.76 150.475 470.251 152.584 470.251C154.686 470.251 156.107 471.76 156.107 474.191C156.107 476.616 154.686 478.132 152.584 478.132ZM152.584 477.011C153.932 477.011 154.811 475.986 154.811 474.191C154.811 472.397 153.932 471.372 152.584 471.372C151.236 471.372 150.35 472.397 150.35 474.191C150.35 475.986 151.236 477.011 152.584 477.011ZM167.086 470.383L164.962 478H163.666L161.944 472.104H161.915L160.201 478H158.905L156.773 470.383H158.041L159.564 476.579H159.593L161.314 470.383H162.545L164.273 476.579H164.303L165.826 470.383H167.086ZM168.133 478V470.383H169.334V471.599H169.364C169.789 470.778 170.602 470.251 171.781 470.251C173.451 470.251 174.417 471.328 174.417 473.056V478H173.143V473.283C173.143 472.053 172.564 471.379 171.393 471.379C170.191 471.379 169.408 472.229 169.408 473.518V478H168.133ZM176.109 478V470.383H177.384V478H176.109ZM176.747 469.101C176.314 469.101 175.956 468.742 175.956 468.31C175.956 467.871 176.314 467.519 176.747 467.519C177.186 467.519 177.545 467.871 177.545 468.31C177.545 468.742 177.186 469.101 176.747 469.101ZM180.445 473.767L183.814 470.383H185.36L182.057 473.671L185.462 478H183.983L181.156 474.455L180.445 475.129V478H179.171V467.431H180.445V473.767ZM188.897 477.048C190.099 477.048 191.021 476.206 191.021 475.107V474.484L188.985 474.609C187.96 474.675 187.374 475.129 187.374 475.847C187.374 476.572 187.982 477.048 188.897 477.048ZM188.612 478.132C187.096 478.132 186.078 477.216 186.078 475.847C186.078 474.543 187.081 473.723 188.839 473.62L191.021 473.496V472.858C191.021 471.928 190.406 471.372 189.352 471.372C188.37 471.372 187.755 471.833 187.594 472.58H186.363C186.451 471.262 187.579 470.251 189.381 470.251C191.168 470.251 192.296 471.218 192.296 472.734V478H191.087V476.689H191.058C190.604 477.561 189.637 478.132 188.612 478.132Z" fill="#9D8C6D"/>
<defs>
<filter id="filter0_d_1_2" x="40" y="718" width="323" height="78" filterUnits="userSpaceOnUse" color-interpolation-filters="sRGB">
<feFlood flood-opacity="0" result="BackgroundImageFix"/>
<feColorMatrix in="SourceAlpha" type="matrix" values="0 0 0 0 0 0 0 0 0 0 0 0 0 0 0 0 0 0 127 0" result="hardAlpha"/>
<feOffset dy="4"/>
<feGaussianBlur stdDeviation="2"/>
<feComposite in2="hardAlpha" operator="out"/>
<feColorMatrix type="matrix" values="0 0 0 0 0 0 0 0 0 0 0 0 0 0 0 0 0 0 0.25 0"/>
<feBlend mode="normal" in2="BackgroundImageFix" result="effect1_dropShadow_1_2"/>
<feBlend mode="normal" in="SourceGraphic" in2="effect1_dropShadow_1_2" result="shape"/>
</filter>
</defs>
</svg>
