<svg width="393" height="852" viewBox="0 0 393 852" fill="none" xmlns="http://www.w3.org/2000/svg">
<g clip-path="url(#clip0_1_18)">
<rect width="393" height="852" rx="40" fill="#EBE5DA"/>
<path d="M36.4219 302L35.2891 298.773H30.8047L29.6719 302H28.1953L32.3516 290.727H33.7422L37.8984 302H36.4219ZM33.0234 292.438L31.2188 297.578H34.875L33.0703 292.438H33.0234ZM40.4062 297.484L44 293.875H45.6484L42.125 297.383L45.7578 302H44.1797L41.1641 298.219L40.4062 298.938V302H39.0469V290.727H40.4062V297.484ZM47.1797 291.914H48.5391V293.875H50.1172V294.992H48.5391V299.82C48.5391 300.562 48.8516 300.898 49.5469 300.898C49.7031 300.898 50.0156 300.875 50.1094 300.859V302C49.9453 302.039 49.5703 302.062 49.25 302.062C47.7578 302.062 47.1797 301.453 47.1797 299.891V294.992H45.9688V293.875H47.1797V291.914ZM58.2422 293.875V302H56.9531V300.68H56.9219C56.4375 301.617 55.5938 302.141 54.3438 302.141C52.5703 302.141 51.5312 300.992 51.5312 299.148V293.875H52.8906V298.906C52.8906 300.227 53.5078 300.938 54.7656 300.938C56.0859 300.938 56.8828 300.031 56.8828 298.648V293.875H58.2422ZM62.6875 300.984C63.9688 300.984 64.9531 300.086 64.9531 298.914V298.25L62.7812 298.383C61.6875 298.453 61.0625 298.938 61.0625 299.703C61.0625 300.477 61.7109 300.984 62.6875 300.984ZM62.3828 302.141C60.7656 302.141 59.6797 301.164 59.6797 299.703C59.6797 298.312 60.75 297.438 62.625 297.328L64.9531 297.195V296.516C64.9531 295.523 64.2969 294.93 63.1719 294.93C62.125 294.93 61.4688 295.422 61.2969 296.219H59.9844C60.0781 294.812 61.2812 293.734 63.2031 293.734C65.1094 293.734 66.3125 294.766 66.3125 296.383V302H65.0234V300.602H64.9922C64.5078 301.531 63.4766 302.141 62.3828 302.141ZM68.1094 302V290.727H69.4688V302H68.1094ZM71.3047 302V293.875H72.5859V295.172H72.6172C73.0703 294.297 73.9375 293.734 75.1953 293.734C76.9766 293.734 78.0078 294.883 78.0078 296.727V302H76.6484V296.969C76.6484 295.656 76.0312 294.938 74.7812 294.938C73.5 294.938 72.6641 295.844 72.6641 297.219V302H71.3047ZM83.1094 302.141C80.8594 302.141 79.3438 300.523 79.3438 297.938C79.3438 295.344 80.8594 293.734 83.1094 293.734C85.3516 293.734 86.8672 295.344 86.8672 297.938C86.8672 300.523 85.3516 302.141 83.1094 302.141ZM83.1094 300.945C84.5469 300.945 85.4844 299.852 85.4844 297.938C85.4844 296.023 84.5469 294.93 83.1094 294.93C81.6719 294.93 80.7266 296.023 80.7266 297.938C80.7266 299.852 81.6719 300.945 83.1094 300.945ZM88.1016 296.117C88.1016 294.727 89.3438 293.734 91.1328 293.734C92.8125 293.734 94.0469 294.734 94.1094 296.109H92.8125C92.7188 295.328 92.0859 294.844 91.0859 294.844C90.0938 294.844 89.4375 295.336 89.4375 296.047C89.4375 296.609 89.8672 296.984 90.7891 297.219L92.0469 297.523C93.6875 297.938 94.2812 298.531 94.2812 299.727C94.2812 301.141 92.9453 302.141 91.0469 302.141C89.2656 302.141 88.0234 301.172 87.8828 299.734H89.2422C89.3906 300.578 90.0312 301.031 91.1328 301.031C92.2344 301.031 92.9141 300.562 92.9141 299.828C92.9141 299.25 92.5781 298.938 91.6641 298.695L90.2344 298.328C88.8047 297.961 88.1016 297.227 88.1016 296.117ZM91.75 292.703H90.5625L92.2031 290.359H93.6719L91.75 292.703ZM102.445 296.539H101.117C100.922 295.656 100.234 294.93 99.0391 294.93C97.6328 294.93 96.6797 296.094 96.6797 297.938C96.6797 299.828 97.6484 300.945 99.0547 300.945C100.164 300.945 100.891 300.359 101.125 299.383H102.461C102.25 301 100.891 302.141 99.0469 302.141C96.7969 302.141 95.2969 300.555 95.2969 297.938C95.2969 295.375 96.7891 293.734 99.0312 293.734C101.062 293.734 102.273 295.078 102.445 296.539ZM103.781 302V293.875H105.141V302H103.781ZM104.461 292.508C104 292.508 103.617 292.125 103.617 291.664C103.617 291.195 104 290.82 104.461 290.82C104.93 290.82 105.312 291.195 105.312 291.664C105.312 292.125 104.93 292.508 104.461 292.508Z" fill="#252426"/>
<path d="M332.256 294.77V297.658H333.961C334.922 297.658 335.479 297.125 335.479 296.211C335.479 295.32 334.887 294.77 333.932 294.77H332.256ZM332.256 298.818V302H330.744V293.545H334.102C335.93 293.545 337.025 294.559 337.025 296.176C337.025 297.295 336.439 298.227 335.432 298.59L337.277 302H335.555L333.891 298.818H332.256ZM340.811 302.123C338.988 302.123 337.805 300.91 337.805 298.895C337.805 296.891 339 295.66 340.811 295.66C342.621 295.66 343.816 296.885 343.816 298.895C343.816 300.91 342.633 302.123 340.811 302.123ZM340.811 300.969C341.736 300.969 342.334 300.219 342.334 298.895C342.334 297.576 341.736 296.82 340.811 296.82C339.891 296.82 339.287 297.576 339.287 298.895C339.287 300.219 339.885 300.969 340.811 300.969ZM344.467 302V301.115L347.684 296.949V296.926H344.496V295.789H349.365V296.75L346.277 300.834V300.863H349.418V302H344.467ZM358.922 295.789L357.24 302H355.705L354.48 297.459H354.451L353.232 302H351.709L350.027 295.789H351.492L352.541 300.559H352.57L353.783 295.789H355.184L356.396 300.559H356.432L357.48 295.789H358.922ZM359.684 302V295.789H361.143V302H359.684ZM360.41 294.975C359.959 294.975 359.602 294.623 359.602 294.184C359.602 293.738 359.959 293.387 360.41 293.387C360.867 293.387 361.225 293.738 361.225 294.184C361.225 294.623 360.867 294.975 360.41 294.975ZM362.367 302V295.789H363.768V296.855H363.797C364.131 296.117 364.793 295.672 365.748 295.672C367.119 295.672 367.898 296.551 367.898 297.986V302H366.439V298.279C366.439 297.4 366.029 296.908 365.197 296.908C364.359 296.908 363.826 297.512 363.826 298.402V302H362.367ZM365.719 294.904H364.529L365.801 293.105H367.195L365.719 294.904Z" fill="#463B26"/>
<g filter="url(#filter0_d_1_18)">
<rect x="19" y="313" width="152" height="150" rx="20" fill="#E3D7C1" shape-rendering="crispEdges"/>
<path d="M69.7188 378V376.656L75.7031 368.484V368.43H69.8828V366.727H78.1406V368.07L72.1875 376.242V376.297H78.2891V378H69.7188ZM82.8359 376.664C83.9375 376.664 84.8203 375.93 84.8203 374.93V374.297L82.9062 374.414C81.9688 374.477 81.4297 374.898 81.4297 375.555C81.4297 376.234 81.9922 376.664 82.8359 376.664ZM82.25 378.133C80.6484 378.133 79.4844 377.125 79.4844 375.633C79.4844 374.164 80.6172 373.281 82.6328 373.156L84.8203 373.031V372.438C84.8203 371.57 84.2344 371.07 83.2734 371.07C82.3516 371.07 81.7656 371.516 81.6406 372.203H79.8359C79.9219 370.656 81.2422 369.547 83.3516 369.547C85.4062 369.547 86.7422 370.633 86.7422 372.297V378H84.8672V376.68H84.8281C84.3516 377.578 83.3125 378.133 82.25 378.133ZM90.3047 369.719V378.391C90.3047 380.07 89.3594 380.906 87.4766 380.906C87.3594 380.906 87.0625 380.898 86.9922 380.891V379.406C87.0312 379.414 87.2031 379.414 87.25 379.414C88.0547 379.414 88.3594 379.125 88.3594 378.359V369.719H90.3047ZM89.3281 368.633C88.7266 368.633 88.25 368.164 88.25 367.578C88.25 366.984 88.7266 366.516 89.3281 366.516C89.9375 366.516 90.4141 366.984 90.4141 367.578C90.4141 368.164 89.9375 368.633 89.3281 368.633ZM97.0078 381.406C95.8828 381.406 95.0625 380.789 95.0625 379.852C95.0625 379.219 95.4375 378.617 96.1172 378.164V378.117C95.9844 378.148 95.7969 378.164 95.5781 378.164C93.0938 378.164 91.5938 376.531 91.5938 373.891C91.5938 371.273 93.1094 369.547 95.5 369.547C97.8516 369.547 99.3203 371.18 99.3203 373.695V374.328H93.5312V374.445C93.5312 375.773 94.3438 376.664 95.6172 376.664C96.5234 376.664 97.2109 376.203 97.4219 375.523H99.2422C99.0938 376.414 98.5 377.086 97.875 377.586C97.0312 378.273 96.5312 378.867 96.5312 379.453C96.5312 379.961 96.9062 380.211 97.4531 380.211C97.6719 380.211 97.8984 380.18 98.0469 380.141V381.25C97.8594 381.344 97.4766 381.406 97.0078 381.406ZM95.5078 371.055C94.4141 371.055 93.625 371.891 93.5469 373.047H97.4141C97.375 371.875 96.625 371.055 95.5078 371.055ZM107.875 372.672H106.039C105.883 371.789 105.266 371.125 104.227 371.125C103 371.125 102.211 372.156 102.211 373.859C102.211 375.594 103.008 376.594 104.242 376.594C105.227 376.594 105.867 376.031 106.047 375.094H107.883C107.727 376.945 106.297 378.164 104.219 378.164C101.797 378.164 100.234 376.547 100.234 373.859C100.234 371.211 101.797 369.547 104.203 369.547C106.391 369.547 107.742 370.93 107.875 372.672ZM109.094 378V369.719H111.039V378H109.094ZM110.062 368.633C109.461 368.633 108.984 368.164 108.984 367.578C108.984 366.984 109.461 366.516 110.062 366.516C110.672 366.516 111.148 366.984 111.148 367.578C111.148 368.164 110.672 368.633 110.062 368.633ZM115.695 376.664C116.797 376.664 117.68 375.93 117.68 374.93V374.297L115.766 374.414C114.828 374.477 114.289 374.898 114.289 375.555C114.289 376.234 114.852 376.664 115.695 376.664ZM115.109 378.133C113.508 378.133 112.344 377.125 112.344 375.633C112.344 374.164 113.477 373.281 115.492 373.156L117.68 373.031V372.438C117.68 371.57 117.094 371.07 116.133 371.07C115.211 371.07 114.625 371.516 114.5 372.203H112.695C112.781 370.656 114.102 369.547 116.211 369.547C118.266 369.547 119.602 370.633 119.602 372.297V378H117.727V376.68H117.688C117.211 377.578 116.172 378.133 115.109 378.133Z" fill="#463B26"/>
<path d="M62.0938 397.727H66.1172C68.2344 397.727 69.7266 399.211 69.7266 401.344C69.7266 403.484 68.2188 404.977 66.1016 404.977H63.5V409H62.0938V397.727ZM63.5 398.977V403.727H65.75C67.3594 403.727 68.2812 402.844 68.2812 401.344C68.2812 399.852 67.3672 398.977 65.75 398.977H63.5ZM71.1328 409V400.875H72.4141V402.203H72.4453C72.7109 401.305 73.4609 400.734 74.4141 400.734C74.6484 400.734 74.8516 400.773 74.9609 400.789V402.109C74.8516 402.07 74.5625 402.031 74.2344 402.031C73.1797 402.031 72.4922 402.789 72.4922 403.938V409H71.1328ZM75.8984 409V408.031L80.3984 402.016V401.992H75.9062V400.875H81.9375V401.867L77.4688 407.859V407.883H81.9609V409H75.8984ZM86.5 401.914C85.2266 401.914 84.3359 402.891 84.25 404.242H88.6641C88.6328 402.883 87.7812 401.914 86.5 401.914ZM88.6328 406.672H89.9688C89.7344 408.094 88.3594 409.141 86.5859 409.141C84.2578 409.141 82.8438 407.523 82.8438 404.969C82.8438 402.445 84.2812 400.734 86.5234 400.734C88.7188 400.734 90.0703 402.328 90.0703 404.789V405.305H84.2422V405.383C84.2422 406.938 85.1562 407.961 86.6172 407.961C87.6484 407.961 88.4062 407.438 88.6328 406.672ZM94.5234 409.141C92.4531 409.141 91.0469 407.484 91.0469 404.938C91.0469 402.391 92.4453 400.734 94.4922 400.734C95.6562 400.734 96.5938 401.305 97.0781 402.195H97.1094V397.727H98.4688V409H97.1719V407.625H97.1484C96.625 408.562 95.6953 409.141 94.5234 409.141ZM94.7812 401.93C93.3438 401.93 92.4375 403.102 92.4375 404.938C92.4375 406.781 93.3438 407.945 94.7812 407.945C96.1797 407.945 97.1172 406.758 97.1172 404.938C97.1172 403.125 96.1797 401.93 94.7812 401.93ZM100.305 409V400.875H101.586V402.172H101.617C102 401.312 102.828 400.734 103.922 400.734C105.031 400.734 105.852 401.297 106.203 402.281H106.234C106.688 401.312 107.641 400.734 108.781 400.734C110.391 400.734 111.43 401.781 111.43 403.391V409H110.07V403.703C110.07 402.594 109.453 401.938 108.383 401.938C107.305 401.938 106.547 402.734 106.547 403.836V409H105.188V403.555C105.188 402.578 104.531 401.938 103.523 401.938C102.445 401.938 101.664 402.781 101.664 403.906V409H100.305ZM113.234 409V400.875H114.594V409H113.234ZM113.914 399.508C113.453 399.508 113.07 399.125 113.07 398.664C113.07 398.195 113.453 397.82 113.914 397.82C114.383 397.82 114.766 398.195 114.766 398.664C114.766 399.125 114.383 399.508 113.914 399.508ZM119.797 409.141C117.547 409.141 116.031 407.523 116.031 404.938C116.031 402.344 117.547 400.734 119.797 400.734C122.039 400.734 123.555 402.344 123.555 404.938C123.555 407.523 122.039 409.141 119.797 409.141ZM119.797 407.945C121.234 407.945 122.172 406.852 122.172 404.938C122.172 403.023 121.234 401.93 119.797 401.93C118.359 401.93 117.414 403.023 117.414 404.938C117.414 406.852 118.359 407.945 119.797 407.945ZM125.367 398.914H126.727V400.875H128.305V401.992H126.727V406.82C126.727 407.562 127.039 407.898 127.734 407.898C127.891 407.898 128.203 407.875 128.297 407.859V409C128.133 409.039 127.758 409.062 127.438 409.062C125.945 409.062 125.367 408.453 125.367 406.891V401.992H124.156V400.875H125.367V398.914Z" fill="#463B26"/>
</g>
<g filter="url(#filter1_d_1_18)">
<rect x="191" y="313" width="152" height="150" rx="20" fill="#E3D7C1" shape-rendering="crispEdges"/>
<path d="M232.961 366.539C236.242 366.539 238.305 368.781 238.305 372.367C238.305 375.953 236.242 378.188 232.961 378.188C229.672 378.188 227.609 375.953 227.609 372.367C227.609 368.781 229.672 366.539 232.961 366.539ZM232.961 368.258C230.945 368.258 229.672 369.852 229.672 372.367C229.672 374.875 230.945 376.469 232.961 376.469C234.969 376.469 236.25 374.875 236.25 372.367C236.25 369.852 234.969 368.258 232.961 368.258ZM243.375 376.461C244.617 376.461 245.422 375.453 245.422 373.836C245.422 372.227 244.617 371.18 243.375 371.18C242.148 371.18 241.367 372.211 241.367 373.836C241.367 375.477 242.148 376.461 243.375 376.461ZM243.367 381.125C241.32 381.125 239.852 380.078 239.656 378.625H241.586C241.797 379.258 242.508 379.688 243.43 379.688C244.695 379.688 245.422 378.977 245.422 377.922V376.523H245.375C244.945 377.414 243.969 378.008 242.781 378.008C240.734 378.008 239.375 376.406 239.375 373.828C239.375 371.211 240.703 369.578 242.82 369.578C244 369.578 244.953 370.188 245.43 371.141H245.461V369.719H247.367V377.867C247.367 379.844 245.781 381.125 243.367 381.125ZM251.945 370.117V371.492L251.086 371.945V378H249.141V372.969L248.281 373.422V372.039L249.141 371.586V366.727H251.086V370.57L251.945 370.117ZM256.539 378.164C254.109 378.164 252.531 376.547 252.531 373.859C252.531 371.188 254.125 369.547 256.539 369.547C258.953 369.547 260.547 371.18 260.547 373.859C260.547 376.547 258.969 378.164 256.539 378.164ZM256.539 376.625C257.773 376.625 258.57 375.625 258.57 373.859C258.57 372.102 257.773 371.094 256.539 371.094C255.312 371.094 254.508 372.102 254.508 373.859C254.508 375.625 255.305 376.625 256.539 376.625ZM261.648 372.094C261.648 370.578 262.984 369.547 265 369.547C266.945 369.547 268.266 370.594 268.312 372.125H266.5C266.438 371.414 265.867 370.977 264.961 370.977C264.102 370.977 263.539 371.383 263.539 371.984C263.539 372.453 263.914 372.766 264.727 372.961L266.203 373.289C267.859 373.68 268.508 374.32 268.508 375.547C268.508 377.109 267.062 378.164 264.969 378.164C262.891 378.164 261.57 377.133 261.438 375.562H263.352C263.469 376.32 264.055 376.742 265.039 376.742C265.984 376.742 266.57 376.359 266.57 375.742C266.57 375.258 266.266 375 265.461 374.797L263.953 374.445C262.422 374.086 261.648 373.289 261.648 372.094ZM269.586 378V376.82L273.875 371.266V371.234H269.625V369.719H276.117V371L272 376.445V376.484H276.188V378H269.586ZM280.977 371.055C279.883 371.055 279.094 371.891 279.016 373.047H282.883C282.844 371.875 282.094 371.055 280.977 371.055ZM282.891 375.523H284.711C284.461 377.086 283.008 378.164 281.047 378.164C278.562 378.164 277.062 376.531 277.062 373.891C277.062 371.273 278.578 369.547 280.969 369.547C283.32 369.547 284.789 371.18 284.789 373.695V374.328H279V374.445C279 375.773 279.812 376.664 281.086 376.664C281.992 376.664 282.68 376.211 282.891 375.523ZM286.047 378V369.719H287.914V371.141H287.953C288.398 370.156 289.281 369.562 290.555 369.562C292.383 369.562 293.422 370.734 293.422 372.648V378H291.477V373.039C291.477 371.867 290.93 371.211 289.82 371.211C288.703 371.211 287.992 372.016 287.992 373.203V378H286.047ZM295.031 378V369.719H296.977V378H295.031ZM296 368.633C295.398 368.633 294.922 368.164 294.922 367.578C294.922 366.984 295.398 366.516 296 366.516C296.609 366.516 297.086 366.984 297.086 367.578C297.086 368.164 296.609 368.633 296 368.633ZM302.18 371.055C301.086 371.055 300.297 371.891 300.219 373.047H304.086C304.047 371.875 303.297 371.055 302.18 371.055ZM304.094 375.523H305.914C305.664 377.086 304.211 378.164 302.25 378.164C299.766 378.164 298.266 376.531 298.266 373.891C298.266 371.273 299.781 369.547 302.172 369.547C304.523 369.547 305.992 371.18 305.992 373.695V374.328H300.203V374.445C300.203 375.773 301.016 376.664 302.289 376.664C303.195 376.664 303.883 376.211 304.094 375.523Z" fill="#463B26"/>
<path d="M234.094 397.727H238.117C240.234 397.727 241.727 399.211 241.727 401.344C241.727 403.484 240.219 404.977 238.102 404.977H235.5V409H234.094V397.727ZM235.5 398.977V403.727H237.75C239.359 403.727 240.281 402.844 240.281 401.344C240.281 399.852 239.367 398.977 237.75 398.977H235.5ZM243.133 409V400.875H244.414V402.203H244.445C244.711 401.305 245.461 400.734 246.414 400.734C246.648 400.734 246.852 400.773 246.961 400.789V402.109C246.852 402.07 246.562 402.031 246.234 402.031C245.18 402.031 244.492 402.789 244.492 403.938V409H243.133ZM247.898 409V408.031L252.398 402.016V401.992H247.906V400.875H253.938V401.867L249.469 407.859V407.883H253.961V409H247.898ZM258.5 401.914C257.227 401.914 256.336 402.891 256.25 404.242H260.664C260.633 402.883 259.781 401.914 258.5 401.914ZM260.633 406.672H261.969C261.734 408.094 260.359 409.141 258.586 409.141C256.258 409.141 254.844 407.523 254.844 404.969C254.844 402.445 256.281 400.734 258.523 400.734C260.719 400.734 262.07 402.328 262.07 404.789V405.305H256.242V405.383C256.242 406.938 257.156 407.961 258.617 407.961C259.648 407.961 260.406 407.438 260.633 406.672ZM266.523 409.141C264.453 409.141 263.047 407.484 263.047 404.938C263.047 402.391 264.445 400.734 266.492 400.734C267.656 400.734 268.594 401.305 269.078 402.195H269.109V397.727H270.469V409H269.172V407.625H269.148C268.625 408.562 267.695 409.141 266.523 409.141ZM266.781 401.93C265.344 401.93 264.438 403.102 264.438 404.938C264.438 406.781 265.344 407.945 266.781 407.945C268.18 407.945 269.117 406.758 269.117 404.938C269.117 403.125 268.18 401.93 266.781 401.93ZM272.305 409V400.875H273.586V402.172H273.617C274 401.312 274.828 400.734 275.922 400.734C277.031 400.734 277.852 401.297 278.203 402.281H278.234C278.688 401.312 279.641 400.734 280.781 400.734C282.391 400.734 283.43 401.781 283.43 403.391V409H282.07V403.703C282.07 402.594 281.453 401.938 280.383 401.938C279.305 401.938 278.547 402.734 278.547 403.836V409H277.188V403.555C277.188 402.578 276.531 401.938 275.523 401.938C274.445 401.938 273.664 402.781 273.664 403.906V409H272.305ZM285.234 409V400.875H286.594V409H285.234ZM285.914 399.508C285.453 399.508 285.07 399.125 285.07 398.664C285.07 398.195 285.453 397.82 285.914 397.82C286.383 397.82 286.766 398.195 286.766 398.664C286.766 399.125 286.383 399.508 285.914 399.508ZM291.797 409.141C289.547 409.141 288.031 407.523 288.031 404.938C288.031 402.344 289.547 400.734 291.797 400.734C294.039 400.734 295.555 402.344 295.555 404.938C295.555 407.523 294.039 409.141 291.797 409.141ZM291.797 407.945C293.234 407.945 294.172 406.852 294.172 404.938C294.172 403.023 293.234 401.93 291.797 401.93C290.359 401.93 289.414 403.023 289.414 404.938C289.414 406.852 290.359 407.945 291.797 407.945ZM297.367 398.914H298.727V400.875H300.305V401.992H298.727V406.82C298.727 407.562 299.039 407.898 299.734 407.898C299.891 407.898 300.203 407.875 300.297 407.859V409C300.133 409.039 299.758 409.062 299.438 409.062C297.945 409.062 297.367 408.453 297.367 406.891V401.992H296.156V400.875H297.367V398.914Z" fill="#463B26"/>
</g>
<g filter="url(#filter2_d_1_18)">
<rect x="363" y="313" width="152" height="150" rx="20" fill="#E3D7C1" shape-rendering="crispEdges"/>
</g>
<path d="M30.4844 149H29.0938V137.727H30.4609L36.6328 146.578H36.7031V137.727H38.0938V149H36.7266L30.5547 140.18H30.4844V149ZM42.5156 147.984C43.7969 147.984 44.7812 147.086 44.7812 145.914V145.25L42.6094 145.383C41.5156 145.453 40.8906 145.938 40.8906 146.703C40.8906 147.477 41.5391 147.984 42.5156 147.984ZM42.2109 149.141C40.5938 149.141 39.5078 148.164 39.5078 146.703C39.5078 145.312 40.5781 144.438 42.4531 144.328L44.7812 144.195V143.516C44.7812 142.523 44.125 141.93 43 141.93C41.9531 141.93 41.2969 142.422 41.125 143.219H39.8125C39.9062 141.812 41.1094 140.734 43.0312 140.734C44.9375 140.734 46.1406 141.766 46.1406 143.383V149H44.8516V147.602H44.8203C44.3359 148.531 43.3047 149.141 42.2109 149.141ZM49.2969 140.875V149.398C49.2969 151.047 48.5156 151.797 46.7812 151.797C46.7578 151.797 46.5391 151.797 46.5234 151.789V150.656C46.5391 150.656 46.7266 150.656 46.7344 150.656C47.6172 150.656 47.9375 150.32 47.9375 149.414V140.875H49.2969ZM48.6172 139.508C48.1562 139.508 47.7734 139.125 47.7734 138.664C47.7734 138.195 48.1562 137.82 48.6172 137.82C49.0859 137.82 49.4688 138.195 49.4688 138.664C49.4688 139.125 49.0859 139.508 48.6172 139.508ZM55.1719 149.141C53.9844 149.141 53.0547 148.562 52.5312 147.625H52.5V149H51.2031V137.727H52.5625V142.234H52.5938C53.1016 141.305 54.0469 140.734 55.1953 140.734C57.2422 140.734 58.625 142.391 58.625 144.938C58.625 147.492 57.25 149.141 55.1719 149.141ZM54.9062 141.93C53.5312 141.93 52.5547 143.133 52.5547 144.938C52.5547 146.75 53.5312 147.945 54.9062 147.945C56.3438 147.945 57.2344 146.797 57.2344 144.938C57.2344 143.094 56.3438 141.93 54.9062 141.93ZM60.0781 149V137.727H61.4375V149H60.0781ZM63.3438 149V140.875H64.7031V149H63.3438ZM64.0234 139.508C63.5625 139.508 63.1797 139.125 63.1797 138.664C63.1797 138.195 63.5625 137.82 64.0234 137.82C64.4922 137.82 64.875 138.195 64.875 138.664C64.875 139.125 64.4922 139.508 64.0234 139.508ZM66.3672 149V148.031L70.8672 142.016V141.992H66.375V140.875H72.4062V141.867L67.9375 147.859V147.883H72.4297V149H66.3672ZM69.3984 139.617C68.8672 139.617 68.4297 139.18 68.4297 138.648C68.4297 138.117 68.8672 137.68 69.3984 137.68C69.9297 137.68 70.3672 138.117 70.3672 138.648C70.3672 139.18 69.9297 139.617 69.3984 139.617ZM73.8828 143.117C73.8828 141.727 75.125 140.734 76.9141 140.734C78.5938 140.734 79.8281 141.734 79.8906 143.109H78.5938C78.5 142.328 77.8672 141.844 76.8672 141.844C75.875 141.844 75.2188 142.336 75.2188 143.047C75.2188 143.609 75.6484 143.984 76.5703 144.219L77.8281 144.523C79.4688 144.938 80.0625 145.531 80.0625 146.727C80.0625 148.141 78.7266 149.141 76.8281 149.141C75.0469 149.141 73.8047 148.172 73.6641 146.734H75.0234C75.1719 147.578 75.8125 148.031 76.9141 148.031C78.0156 148.031 78.6953 147.562 78.6953 146.828C78.6953 146.25 78.3594 145.938 77.4453 145.695L76.0156 145.328C74.5859 144.961 73.8828 144.227 73.8828 143.117ZM81.3047 149V148.031L85.8047 142.016V141.992H81.3125V140.875H87.3438V141.867L82.875 147.859V147.883H87.3672V149H81.3047ZM91.9062 141.914C90.6328 141.914 89.7422 142.891 89.6562 144.242H94.0703C94.0391 142.883 93.1875 141.914 91.9062 141.914ZM94.0391 146.672H95.375C95.1406 148.094 93.7656 149.141 91.9922 149.141C89.6641 149.141 88.25 147.523 88.25 144.969C88.25 142.445 89.6875 140.734 91.9297 140.734C94.125 140.734 95.4766 142.328 95.4766 144.789V145.305H89.6484V145.383C89.6484 146.938 90.5625 147.961 92.0234 147.961C93.0547 147.961 93.8125 147.438 94.0391 146.672ZM99.9609 149V148.031L104.461 142.016V141.992H99.9688V140.875H106V141.867L101.531 147.859V147.883H106.023V149H99.9609ZM110.297 147.984C111.578 147.984 112.562 147.086 112.562 145.914V145.25L110.391 145.383C109.297 145.453 108.672 145.938 108.672 146.703C108.672 147.477 109.32 147.984 110.297 147.984ZM109.992 149.141C108.375 149.141 107.289 148.164 107.289 146.703C107.289 145.312 108.359 144.438 110.234 144.328L112.562 144.195V143.516C112.562 142.523 111.906 141.93 110.781 141.93C109.734 141.93 109.078 142.422 108.906 143.219H107.594C107.688 141.812 108.891 140.734 110.812 140.734C112.719 140.734 113.922 141.766 113.922 143.383V149H112.633V147.602H112.602C112.117 148.531 111.086 149.141 109.992 149.141ZM117.078 140.875V149.398C117.078 151.047 116.297 151.797 114.562 151.797C114.539 151.797 114.32 151.797 114.305 151.789V150.656C114.32 150.656 114.508 150.656 114.516 150.656C115.398 150.656 115.719 150.32 115.719 149.414V140.875H117.078ZM116.398 139.508C115.938 139.508 115.555 139.125 115.555 138.664C115.555 138.195 115.938 137.82 116.398 137.82C116.867 137.82 117.25 138.195 117.25 138.664C117.25 139.125 116.867 139.508 116.398 139.508ZM123.547 152.219C122.547 152.219 121.797 151.664 121.797 150.805C121.797 150.211 122.141 149.633 122.805 149.117V149.086C122.656 149.125 122.461 149.141 122.258 149.141C119.93 149.141 118.516 147.523 118.516 144.969C118.516 142.445 119.953 140.734 122.195 140.734C124.391 140.734 125.742 142.328 125.742 144.789V145.305H119.914V145.383C119.914 146.938 120.828 147.961 122.289 147.961C123.32 147.961 124.078 147.438 124.305 146.672H125.641C125.469 147.641 124.781 148.289 124.117 148.812C123.406 149.367 122.922 149.906 122.922 150.484C122.922 150.984 123.328 151.234 123.828 151.234C124.047 151.234 124.266 151.203 124.453 151.164V152.086C124.312 152.156 123.969 152.219 123.547 152.219ZM122.172 141.914C120.898 141.914 120.008 142.891 119.922 144.242H124.336C124.305 142.883 123.453 141.914 122.172 141.914ZM133.867 143.539H132.539C132.344 142.656 131.656 141.93 130.461 141.93C129.055 141.93 128.102 143.094 128.102 144.938C128.102 146.828 129.07 147.945 130.477 147.945C131.586 147.945 132.312 147.359 132.547 146.383H133.883C133.672 148 132.312 149.141 130.469 149.141C128.219 149.141 126.719 147.555 126.719 144.938C126.719 142.375 128.211 140.734 130.453 140.734C132.484 140.734 133.695 142.078 133.867 143.539ZM135.203 149V140.875H136.562V149H135.203ZM135.883 139.508C135.422 139.508 135.039 139.125 135.039 138.664C135.039 138.195 135.422 137.82 135.883 137.82C136.352 137.82 136.734 138.195 136.734 138.664C136.734 139.125 136.352 139.508 135.883 139.508ZM141.078 147.984C142.359 147.984 143.344 147.086 143.344 145.914V145.25L141.172 145.383C140.078 145.453 139.453 145.938 139.453 146.703C139.453 147.477 140.102 147.984 141.078 147.984ZM140.773 149.141C139.156 149.141 138.07 148.164 138.07 146.703C138.07 145.312 139.141 144.438 141.016 144.328L143.344 144.195V143.516C143.344 142.523 142.688 141.93 141.562 141.93C140.516 141.93 139.859 142.422 139.688 143.219H138.375C138.469 141.812 139.672 140.734 141.594 140.734C143.5 140.734 144.703 141.766 144.703 143.383V149H143.414V147.602H143.383C142.898 148.531 141.867 149.141 140.773 149.141Z" fill="#252426"/>
<path d="M332.256 141.77V144.658H333.961C334.922 144.658 335.479 144.125 335.479 143.211C335.479 142.32 334.887 141.77 333.932 141.77H332.256ZM332.256 145.818V149H330.744V140.545H334.102C335.93 140.545 337.025 141.559 337.025 143.176C337.025 144.295 336.439 145.227 335.432 145.59L337.277 149H335.555L333.891 145.818H332.256ZM340.811 149.123C338.988 149.123 337.805 147.91 337.805 145.895C337.805 143.891 339 142.66 340.811 142.66C342.621 142.66 343.816 143.885 343.816 145.895C343.816 147.91 342.633 149.123 340.811 149.123ZM340.811 147.969C341.736 147.969 342.334 147.219 342.334 145.895C342.334 144.576 341.736 143.82 340.811 143.82C339.891 143.82 339.287 144.576 339.287 145.895C339.287 147.219 339.885 147.969 340.811 147.969ZM344.467 149V148.115L347.684 143.949V143.926H344.496V142.789H349.365V143.75L346.277 147.834V147.863H349.418V149H344.467ZM358.922 142.789L357.24 149H355.705L354.48 144.459H354.451L353.232 149H351.709L350.027 142.789H351.492L352.541 147.559H352.57L353.783 142.789H355.184L356.396 147.559H356.432L357.48 142.789H358.922ZM359.684 149V142.789H361.143V149H359.684ZM360.41 141.975C359.959 141.975 359.602 141.623 359.602 141.184C359.602 140.738 359.959 140.387 360.41 140.387C360.867 140.387 361.225 140.738 361.225 141.184C361.225 141.623 360.867 141.975 360.41 141.975ZM362.367 149V142.789H363.768V143.855H363.797C364.131 143.117 364.793 142.672 365.748 142.672C367.119 142.672 367.898 143.551 367.898 144.986V149H366.439V145.279C366.439 144.4 366.029 143.908 365.197 143.908C364.359 143.908 363.826 144.512 363.826 145.402V149H362.367ZM365.719 141.904H364.529L365.801 140.105H367.195L365.719 141.904Z" fill="#463B26"/>
<g filter="url(#filter3_d_1_18)">
<rect x="19" y="160" width="355" height="101" rx="20" fill="#E3D7C1"/>
<path d="M82 175V247.5" stroke="#817359" stroke-linecap="round"/>
<path d="M48.709 186.158C46.8223 186.158 45.5098 185.145 45.5098 183.715C45.5098 182.637 46.2715 181.775 47.3906 181.541V181.512C46.4531 181.254 45.8496 180.521 45.8496 179.613C45.8496 178.33 47.0508 177.387 48.709 177.387C50.373 177.387 51.5625 178.324 51.5625 179.619C51.5625 180.516 50.9648 181.242 50.0273 181.512V181.541C51.1523 181.775 51.9082 182.643 51.9082 183.715C51.9082 185.15 50.584 186.158 48.709 186.158ZM48.709 185.104C49.7871 185.104 50.5488 184.482 50.5488 183.621C50.5488 182.748 49.7871 182.127 48.709 182.127C47.6309 182.127 46.8633 182.754 46.8633 183.621C46.8633 184.482 47.6309 185.104 48.709 185.104ZM48.709 181.072C49.6172 181.072 50.2676 180.521 50.2676 179.754C50.2676 178.98 49.623 178.43 48.709 178.43C47.7891 178.43 47.1504 178.98 47.1504 179.754C47.1504 180.521 47.7891 181.072 48.709 181.072ZM53.8418 186.064C53.4141 186.064 53.0742 185.725 53.0742 185.297C53.0742 184.869 53.4141 184.529 53.8418 184.529C54.2695 184.529 54.6094 184.869 54.6094 185.297C54.6094 185.725 54.2695 186.064 53.8418 186.064ZM57.5332 186V178.846H57.5039L55.2949 180.416V179.127L57.5215 177.545H58.8164V186H57.5332ZM63.9082 186.158C62.2207 186.158 60.9844 185.127 60.9082 183.65H62.1621C62.2559 184.488 62.9766 185.062 63.9199 185.062C64.9863 185.062 65.7246 184.318 65.7246 183.258C65.7246 182.197 64.9863 181.436 63.9316 181.436C63.1992 181.436 62.5664 181.77 62.2383 182.326H61.0371L61.4824 177.545H66.5156V178.652H62.5371L62.3027 181.248H62.332C62.7012 180.715 63.3926 180.393 64.2188 180.393C65.8418 180.393 67.0078 181.582 67.0078 183.223C67.0078 184.957 65.7305 186.158 63.9082 186.158Z" fill="#817359"/>
<path d="M42.7949 245V237.846H42.7656L40.5566 239.416V238.127L42.7832 236.545H44.0781V245H42.7949ZM49.2227 245.158C47.1953 245.158 45.9941 243.459 45.9941 240.764C45.9941 238.086 47.207 236.387 49.2227 236.387C51.2441 236.387 52.4395 238.08 52.4395 240.758C52.4395 243.453 51.25 245.158 49.2227 245.158ZM49.2227 244.057C50.4297 244.057 51.1152 242.809 51.1152 240.764C51.1152 238.748 50.418 237.488 49.2227 237.488C48.0273 237.488 47.3242 238.754 47.3242 240.764C47.3242 242.803 48.0156 244.057 49.2227 244.057ZM54.2793 245.064C53.8516 245.064 53.5117 244.725 53.5117 244.297C53.5117 243.869 53.8516 243.529 54.2793 243.529C54.707 243.529 55.0469 243.869 55.0469 244.297C55.0469 244.725 54.707 245.064 54.2793 245.064ZM59.5234 245.158C57.4961 245.158 56.2949 243.459 56.2949 240.764C56.2949 238.086 57.5078 236.387 59.5234 236.387C61.5449 236.387 62.7402 238.08 62.7402 240.758C62.7402 243.453 61.5508 245.158 59.5234 245.158ZM59.5234 244.057C60.7305 244.057 61.416 242.809 61.416 240.764C61.416 238.748 60.7188 237.488 59.5234 237.488C58.3281 237.488 57.625 238.754 57.625 240.764C57.625 242.803 58.3164 244.057 59.5234 244.057ZM67 245.158C64.9727 245.158 63.7715 243.459 63.7715 240.764C63.7715 238.086 64.9844 236.387 67 236.387C69.0215 236.387 70.2168 238.08 70.2168 240.758C70.2168 243.453 69.0273 245.158 67 245.158ZM67 244.057C68.207 244.057 68.8926 242.809 68.8926 240.764C68.8926 238.748 68.1953 237.488 67 237.488C65.8047 237.488 65.1016 238.754 65.1016 240.764C65.1016 242.803 65.793 244.057 67 244.057Z" fill="#817359"/>
<path d="M95.6318 186H93.8682V176.136H100.157V177.626H95.6318V180.538H99.7676V181.974H95.6318V186ZM101.312 186V178.754H103.015V186H101.312ZM102.16 177.804C101.634 177.804 101.217 177.394 101.217 176.881C101.217 176.361 101.634 175.951 102.16 175.951C102.693 175.951 103.11 176.361 103.11 176.881C103.11 177.394 102.693 177.804 102.16 177.804ZM104.3 186V184.968L108.053 180.107V180.08H104.334V178.754H110.015V179.875L106.412 184.64V184.674H110.076V186H104.3ZM112.141 188.693C112.045 188.693 111.56 188.687 111.471 188.666V187.319C111.56 187.34 111.86 187.347 111.963 187.347C112.667 187.347 113.029 187.08 113.221 186.41C113.221 186.39 113.323 186.027 113.316 186.007L110.739 178.754H112.599L114.308 184.551H114.335L116.044 178.754H117.835L115.217 186.287C114.595 188.085 113.795 188.693 112.141 188.693ZM124.828 181.338H123.222C123.085 180.565 122.545 179.984 121.636 179.984C120.562 179.984 119.872 180.887 119.872 182.377C119.872 183.895 120.569 184.77 121.649 184.77C122.511 184.77 123.071 184.277 123.229 183.457H124.835C124.698 185.077 123.447 186.144 121.629 186.144C119.51 186.144 118.143 184.729 118.143 182.377C118.143 180.06 119.51 178.604 121.615 178.604C123.529 178.604 124.712 179.813 124.828 181.338ZM125.71 186V184.968L129.463 180.107V180.08H125.744V178.754H131.425V179.875L127.822 184.64V184.674H131.486V186H125.71ZM132.689 186V178.754H134.323V179.998H134.357C134.747 179.137 135.52 178.617 136.634 178.617C138.233 178.617 139.143 179.643 139.143 181.317V186H137.44V181.659C137.44 180.634 136.962 180.06 135.991 180.06C135.014 180.06 134.392 180.764 134.392 181.803V186H132.689ZM143.634 179.923C142.677 179.923 141.986 180.654 141.918 181.666H145.302C145.268 180.641 144.611 179.923 143.634 179.923ZM145.309 183.833H146.901C146.683 185.2 145.411 186.144 143.695 186.144C141.521 186.144 140.209 184.715 140.209 182.404C140.209 180.114 141.535 178.604 143.627 178.604C145.685 178.604 146.97 180.032 146.97 182.233V182.787H141.904V182.89C141.904 184.052 142.615 184.831 143.729 184.831C144.522 184.831 145.124 184.435 145.309 183.833ZM154.852 178.631C156.69 178.631 157.859 180.06 157.859 182.377C157.859 184.688 156.697 186.116 154.879 186.116C153.826 186.116 153.006 185.61 152.609 184.797H152.575V188.386H150.873V178.754H152.534V180.005H152.568C152.979 179.164 153.799 178.631 154.852 178.631ZM154.332 184.722C155.433 184.722 156.116 183.812 156.116 182.377C156.116 180.948 155.433 180.032 154.332 180.032C153.272 180.032 152.568 180.969 152.562 182.377C152.568 183.799 153.272 184.722 154.332 184.722ZM162.159 186.144C160.033 186.144 158.652 184.729 158.652 182.377C158.652 180.039 160.047 178.604 162.159 178.604C164.271 178.604 165.666 180.032 165.666 182.377C165.666 184.729 164.285 186.144 162.159 186.144ZM162.159 184.797C163.239 184.797 163.937 183.922 163.937 182.377C163.937 180.839 163.239 179.957 162.159 179.957C161.086 179.957 160.382 180.839 160.382 182.377C160.382 183.922 161.079 184.797 162.159 184.797ZM169.467 186.116C167.642 186.116 166.459 184.674 166.459 182.37C166.459 180.08 167.642 178.631 169.467 178.631C170.506 178.631 171.326 179.171 171.709 179.971H171.75V176.136H173.452V186H171.784V184.763H171.757C171.36 185.576 170.526 186.116 169.467 186.116ZM169.979 180.032C168.886 180.032 168.202 180.941 168.202 182.377C168.202 183.819 168.879 184.722 169.979 184.722C171.053 184.722 171.757 183.812 171.757 182.377C171.757 180.955 171.053 180.032 169.979 180.032ZM174.751 180.832C174.751 179.506 175.92 178.604 177.684 178.604C179.386 178.604 180.541 179.52 180.582 180.859H178.996C178.941 180.237 178.442 179.854 177.649 179.854C176.897 179.854 176.405 180.21 176.405 180.736C176.405 181.146 176.733 181.42 177.444 181.591L178.736 181.878C180.186 182.22 180.753 182.78 180.753 183.854C180.753 185.221 179.488 186.144 177.656 186.144C175.838 186.144 174.683 185.241 174.566 183.867H176.241C176.344 184.53 176.856 184.899 177.718 184.899C178.545 184.899 179.058 184.564 179.058 184.024C179.058 183.601 178.791 183.375 178.087 183.197L176.768 182.89C175.428 182.575 174.751 181.878 174.751 180.832ZM182.312 177.059H184.014V178.754H185.381V180.066H184.014V183.833C184.014 184.428 184.287 184.701 184.889 184.701C185.046 184.701 185.265 184.688 185.374 184.667V185.966C185.189 186.007 184.854 186.034 184.492 186.034C182.927 186.034 182.312 185.48 182.312 184.072V180.066H181.272V178.754H182.312V177.059ZM189.093 184.831C190.057 184.831 190.829 184.188 190.829 183.313V182.76L189.154 182.862C188.334 182.917 187.862 183.286 187.862 183.86C187.862 184.455 188.354 184.831 189.093 184.831ZM188.58 186.116C187.179 186.116 186.16 185.234 186.16 183.929C186.16 182.644 187.151 181.871 188.915 181.762L190.829 181.652V181.133C190.829 180.374 190.316 179.937 189.476 179.937C188.669 179.937 188.156 180.326 188.047 180.928H186.468C186.543 179.574 187.698 178.604 189.544 178.604C191.342 178.604 192.511 179.554 192.511 181.01V186H190.87V184.845H190.836C190.419 185.631 189.51 186.116 188.58 186.116ZM203.688 178.754L201.726 186H199.935L198.506 180.702H198.472L197.05 186H195.272L193.311 178.754H195.02L196.243 184.318H196.277L197.692 178.754H199.326L200.741 184.318H200.782L202.006 178.754H203.688ZM205.41 188.693C205.314 188.693 204.829 188.687 204.74 188.666V187.319C204.829 187.34 205.13 187.347 205.232 187.347C205.937 187.347 206.299 187.08 206.49 186.41C206.49 186.39 206.593 186.027 206.586 186.007L204.009 178.754H205.868L207.577 184.551H207.604L209.313 178.754H211.104L208.486 186.287C207.864 188.085 207.064 188.693 205.41 188.693ZM217.845 179.923C216.888 179.923 216.197 180.654 216.129 181.666H219.513C219.479 180.641 218.822 179.923 217.845 179.923ZM219.52 183.833H221.112C220.894 185.2 219.622 186.144 217.906 186.144C215.732 186.144 214.42 184.715 214.42 182.404C214.42 180.114 215.746 178.604 217.838 178.604C219.896 178.604 221.181 180.032 221.181 182.233V182.787H216.115V182.89C216.115 184.052 216.826 184.831 217.94 184.831C218.733 184.831 219.335 184.435 219.52 183.833ZM222.329 186V176.136H224.031V186H222.329ZM228.604 179.923C227.647 179.923 226.957 180.654 226.889 181.666H230.272C230.238 180.641 229.582 179.923 228.604 179.923ZM230.279 183.833H231.872C231.653 185.2 230.382 186.144 228.666 186.144C226.492 186.144 225.18 184.715 225.18 182.404C225.18 180.114 226.506 178.604 228.598 178.604C230.655 178.604 231.94 180.032 231.94 182.233V182.787H226.875V182.89C226.875 184.052 227.586 184.831 228.7 184.831C229.493 184.831 230.095 184.435 230.279 183.833ZM234.812 181.775L237.539 178.754H239.501L236.603 181.871L239.624 186H237.655L235.365 182.903L234.791 183.484V186H233.089V176.136H234.791V181.775H234.812ZM240.772 177.059H242.475V178.754H243.842V180.066H242.475V183.833C242.475 184.428 242.748 184.701 243.35 184.701C243.507 184.701 243.726 184.688 243.835 184.667V185.966C243.65 186.007 243.315 186.034 242.953 186.034C241.388 186.034 240.772 185.48 240.772 184.072V180.066H239.733V178.754H240.772V177.059ZM245.004 186V178.754H246.638V180.019H246.672C246.918 179.137 247.554 178.631 248.408 178.631C248.627 178.631 248.818 178.672 248.941 178.699V180.237C248.798 180.183 248.538 180.142 248.251 180.142C247.287 180.142 246.706 180.764 246.706 181.782V186H245.004ZM252.749 186.144C250.623 186.144 249.242 184.729 249.242 182.377C249.242 180.039 250.637 178.604 252.749 178.604C254.861 178.604 256.256 180.032 256.256 182.377C256.256 184.729 254.875 186.144 252.749 186.144ZM252.749 184.797C253.829 184.797 254.526 183.922 254.526 182.377C254.526 180.839 253.829 179.957 252.749 179.957C251.676 179.957 250.972 180.839 250.972 182.377C250.972 183.922 251.669 184.797 252.749 184.797ZM257.821 177.059H259.523V178.754H260.891V180.066H259.523V183.833C259.523 184.428 259.797 184.701 260.398 184.701C260.556 184.701 260.774 184.688 260.884 184.667V185.966C260.699 186.007 260.364 186.034 260.002 186.034C258.437 186.034 257.821 185.48 257.821 184.072V180.066H256.782V178.754H257.821V177.059ZM265.04 179.923C264.083 179.923 263.393 180.654 263.324 181.666H266.708C266.674 180.641 266.018 179.923 265.04 179.923ZM266.715 183.833H268.308C268.089 185.2 266.817 186.144 265.102 186.144C262.928 186.144 261.615 184.715 261.615 182.404C261.615 180.114 262.941 178.604 265.033 178.604C267.091 178.604 268.376 180.032 268.376 182.233V182.787H263.311V182.89C263.311 184.052 264.021 184.831 265.136 184.831C265.929 184.831 266.53 184.435 266.715 183.833ZM275.861 181.338H274.255C274.118 180.565 273.578 179.984 272.669 179.984C271.596 179.984 270.905 180.887 270.905 182.377C270.905 183.895 271.603 184.77 272.683 184.77C273.544 184.77 274.104 184.277 274.262 183.457H275.868C275.731 185.077 274.48 186.144 272.662 186.144C270.543 186.144 269.176 184.729 269.176 182.377C269.176 180.06 270.543 178.604 272.648 178.604C274.562 178.604 275.745 179.813 275.861 181.338ZM276.935 186V176.136H278.616V179.998H278.65C279.04 179.116 279.84 178.617 280.94 178.617C282.54 178.617 283.477 179.67 283.477 181.331V186H281.774V181.68C281.774 180.668 281.269 180.06 280.284 180.06C279.259 180.06 278.637 180.771 278.637 181.837V186H276.935ZM284.844 186V178.754H286.478V179.998H286.512C286.901 179.137 287.674 178.617 288.788 178.617C290.388 178.617 291.297 179.643 291.297 181.317V186H289.595V181.659C289.595 180.634 289.116 180.06 288.146 180.06C287.168 180.06 286.546 180.764 286.546 181.803V186H284.844ZM292.705 186V178.754H294.407V186H292.705ZM293.553 177.804C293.026 177.804 292.609 177.394 292.609 176.881C292.609 176.361 293.026 175.951 293.553 175.951C294.086 175.951 294.503 176.361 294.503 176.881C294.503 177.394 294.086 177.804 293.553 177.804ZM297.606 181.775L300.334 178.754H302.296L299.397 181.871L302.419 186H300.45L298.16 182.903L297.586 183.484V186H295.884V176.136H297.586V181.775H297.606ZM303.137 186V178.754H304.839V186H303.137ZM303.984 177.804C303.458 177.804 303.041 177.394 303.041 176.881C303.041 176.361 303.458 175.951 303.984 175.951C304.518 175.951 304.935 176.361 304.935 176.881C304.935 177.394 304.518 177.804 303.984 177.804ZM309.111 186V178.754H310.813V186H309.111ZM309.959 177.804C309.433 177.804 309.016 177.394 309.016 176.881C309.016 176.361 309.433 175.951 309.959 175.951C310.492 175.951 310.909 176.361 310.909 176.881C310.909 177.394 310.492 177.804 309.959 177.804ZM96.8213 196.923C95.8643 196.923 95.1738 197.654 95.1055 198.666H98.4893C98.4551 197.641 97.7988 196.923 96.8213 196.923ZM98.4961 200.833H100.089C99.8701 202.2 98.5986 203.144 96.8828 203.144C94.709 203.144 93.3965 201.715 93.3965 199.404C93.3965 197.114 94.7227 195.604 96.8145 195.604C98.8721 195.604 100.157 197.032 100.157 199.233V199.787H95.0918V199.89C95.0918 201.052 95.8027 201.831 96.917 201.831C97.71 201.831 98.3115 201.435 98.4961 200.833ZM101.306 203V193.136H103.008V203H101.306ZM107.581 196.923C106.624 196.923 105.934 197.654 105.865 198.666H109.249C109.215 197.641 108.559 196.923 107.581 196.923ZM109.256 200.833H110.849C110.63 202.2 109.358 203.144 107.643 203.144C105.469 203.144 104.156 201.715 104.156 199.404C104.156 197.114 105.482 195.604 107.574 195.604C109.632 195.604 110.917 197.032 110.917 199.233V199.787H105.852V199.89C105.852 201.052 106.562 201.831 107.677 201.831C108.47 201.831 109.071 201.435 109.256 200.833ZM113.788 198.775L116.516 195.754H118.478L115.579 198.871L118.601 203H116.632L114.342 199.903L113.768 200.484V203H112.065V193.136H113.768V198.775H113.788ZM119.749 194.059H121.451V195.754H122.818V197.066H121.451V200.833C121.451 201.428 121.725 201.701 122.326 201.701C122.483 201.701 122.702 201.688 122.812 201.667V202.966C122.627 203.007 122.292 203.034 121.93 203.034C120.364 203.034 119.749 202.48 119.749 201.072V197.066H118.71V195.754H119.749V194.059ZM123.98 203V195.754H125.614V197.019H125.648C125.895 196.137 126.53 195.631 127.385 195.631C127.604 195.631 127.795 195.672 127.918 195.699V197.237C127.774 197.183 127.515 197.142 127.228 197.142C126.264 197.142 125.683 197.764 125.683 198.782V203H123.98ZM131.726 203.144C129.6 203.144 128.219 201.729 128.219 199.377C128.219 197.039 129.613 195.604 131.726 195.604C133.838 195.604 135.232 197.032 135.232 199.377C135.232 201.729 133.852 203.144 131.726 203.144ZM131.726 201.797C132.806 201.797 133.503 200.922 133.503 199.377C133.503 197.839 132.806 196.957 131.726 196.957C130.652 196.957 129.948 197.839 129.948 199.377C129.948 200.922 130.646 201.797 131.726 201.797ZM136.326 203V195.754H137.96V196.998H137.994C138.384 196.137 139.156 195.617 140.271 195.617C141.87 195.617 142.779 196.643 142.779 198.317V203H141.077V198.659C141.077 197.634 140.599 197.06 139.628 197.06C138.65 197.06 138.028 197.764 138.028 198.803V203H136.326ZM144.188 203V195.754H145.89V203H144.188ZM145.035 194.804C144.509 194.804 144.092 194.394 144.092 193.881C144.092 193.361 144.509 192.951 145.035 192.951C145.568 192.951 145.985 193.361 145.985 193.881C145.985 194.394 145.568 194.804 145.035 194.804ZM149.089 198.775L151.816 195.754H153.778L150.88 198.871L153.901 203H151.933L149.643 199.903L149.068 200.484V203H147.366V193.136H149.068V198.775H149.089ZM154.619 203V195.754H156.321V203H154.619ZM155.467 194.804C154.94 194.804 154.523 194.394 154.523 193.881C154.523 193.361 154.94 192.951 155.467 192.951C156 192.951 156.417 193.361 156.417 193.881C156.417 194.394 156 194.804 155.467 194.804Z" fill="#463B26"/>
<path opacity="0.52" d="M93.6494 238.853C93.6494 237.636 94.7363 236.768 96.3018 236.768C97.7715 236.768 98.8516 237.643 98.9062 238.846H97.7715C97.6895 238.162 97.1357 237.738 96.2607 237.738C95.3926 237.738 94.8184 238.169 94.8184 238.791C94.8184 239.283 95.1943 239.611 96.001 239.816L97.1016 240.083C98.5371 240.445 99.0566 240.965 99.0566 242.011C99.0566 243.248 97.8877 244.123 96.2266 244.123C94.668 244.123 93.5811 243.275 93.458 242.018H94.6475C94.7773 242.756 95.3379 243.152 96.3018 243.152C97.2656 243.152 97.8604 242.742 97.8604 242.1C97.8604 241.594 97.5664 241.32 96.7666 241.108L95.5156 240.787C94.2646 240.466 93.6494 239.823 93.6494 238.853ZM101.299 244.068C100.861 244.068 100.52 243.727 100.52 243.289C100.52 242.852 100.861 242.51 101.299 242.51C101.736 242.51 102.078 242.852 102.078 243.289C102.078 243.727 101.736 244.068 101.299 244.068ZM108.073 239.447V238.408H109.256C110.391 238.408 111.184 237.677 111.184 236.679C111.184 235.701 110.521 235.038 109.27 235.038C108.135 235.038 107.383 235.688 107.273 236.72H106.091C106.228 235.045 107.472 233.972 109.324 233.972C111.088 233.972 112.421 235.031 112.421 236.515C112.421 237.752 111.628 238.641 110.397 238.859V238.887C111.888 238.976 112.845 239.898 112.845 241.286C112.845 242.981 111.3 244.164 109.365 244.164C107.301 244.164 105.981 243.022 105.893 241.389H107.075C107.185 242.4 108.025 243.098 109.352 243.098C110.657 243.098 111.594 242.359 111.594 241.327C111.594 240.165 110.719 239.447 109.311 239.447H108.073ZM117.801 244.164C115.497 244.164 114.164 242.182 114.164 239.064C114.164 235.975 115.511 233.972 117.801 233.972C120.091 233.972 121.424 235.961 121.424 239.058C121.424 242.175 120.098 244.164 117.801 244.164ZM117.801 243.091C119.339 243.091 120.187 241.525 120.187 239.064C120.187 236.638 119.325 235.052 117.801 235.052C116.276 235.052 115.401 236.651 115.401 239.058C115.401 241.519 116.256 243.091 117.801 243.091ZM126.291 244.164C123.987 244.164 122.654 242.182 122.654 239.064C122.654 235.975 124.001 233.972 126.291 233.972C128.581 233.972 129.914 235.961 129.914 239.058C129.914 242.175 128.588 244.164 126.291 244.164ZM126.291 243.091C127.829 243.091 128.677 241.525 128.677 239.064C128.677 236.638 127.815 235.052 126.291 235.052C124.767 235.052 123.892 236.651 123.892 239.058C123.892 241.519 124.746 243.091 126.291 243.091ZM137.707 244.123C136.668 244.123 135.854 243.617 135.396 242.797H135.369V244H134.234V234.136H135.424V238.08H135.451C135.896 237.267 136.723 236.768 137.728 236.768C139.519 236.768 140.729 238.217 140.729 240.445C140.729 242.681 139.525 244.123 137.707 244.123ZM137.475 237.813C136.271 237.813 135.417 238.866 135.417 240.445C135.417 242.031 136.271 243.077 137.475 243.077C138.732 243.077 139.512 242.072 139.512 240.445C139.512 238.832 138.732 237.813 137.475 237.813ZM147.776 236.891V244H146.648V242.845H146.621C146.197 243.665 145.459 244.123 144.365 244.123C142.813 244.123 141.904 243.118 141.904 241.505V236.891H143.094V241.293C143.094 242.448 143.634 243.07 144.734 243.07C145.89 243.07 146.587 242.277 146.587 241.067V236.891H147.776ZM152.015 244.123C150.203 244.123 148.973 242.674 148.973 240.445C148.973 238.217 150.196 236.768 151.987 236.768C153.006 236.768 153.826 237.267 154.25 238.046H154.277V234.136H155.467V244H154.332V242.797H154.312C153.854 243.617 153.04 244.123 152.015 244.123ZM152.24 237.813C150.982 237.813 150.189 238.839 150.189 240.445C150.189 242.059 150.982 243.077 152.24 243.077C153.464 243.077 154.284 242.038 154.284 240.445C154.284 238.859 153.464 237.813 152.24 237.813ZM158.078 244.068C157.641 244.068 157.299 243.727 157.299 243.289C157.299 242.852 157.641 242.51 158.078 242.51C158.516 242.51 158.857 242.852 158.857 243.289C158.857 243.727 158.516 244.068 158.078 244.068ZM165.358 244V235.441H165.331L162.72 237.321V236.022L165.345 234.136H166.548V244H165.358ZM172.502 244.164C170.198 244.164 168.865 242.182 168.865 239.064C168.865 235.975 170.212 233.972 172.502 233.972C174.792 233.972 176.125 235.961 176.125 239.058C176.125 242.175 174.799 244.164 172.502 244.164ZM172.502 243.091C174.04 243.091 174.888 241.525 174.888 239.064C174.888 236.638 174.026 235.052 172.502 235.052C170.978 235.052 170.103 236.651 170.103 239.058C170.103 241.519 170.957 243.091 172.502 243.091ZM182.229 244V241.949H177.273V240.835C178.114 239.276 179.27 237.479 181.601 234.136H183.419V240.869H184.813V241.949H183.419V244H182.229ZM178.49 240.842V240.869H182.229V235.161H182.209C180.343 237.827 179.27 239.475 178.49 240.842ZM189.469 244.164C187.165 244.164 185.832 242.182 185.832 239.064C185.832 235.975 187.179 233.972 189.469 233.972C191.759 233.972 193.092 235.961 193.092 239.058C193.092 242.175 191.766 244.164 189.469 244.164ZM189.469 243.091C191.007 243.091 191.854 241.525 191.854 239.064C191.854 236.638 190.993 235.052 189.469 235.052C187.944 235.052 187.069 236.651 187.069 239.058C187.069 241.519 187.924 243.091 189.469 243.091ZM198.95 240.555H194.466V239.447H198.95V240.555ZM208.985 239.919C208.985 242.585 207.434 244.164 204.802 244.164C202.047 244.164 200.283 242.154 200.283 239.017C200.283 235.934 202.04 233.972 204.802 233.972C206.935 233.972 208.555 235.236 208.924 237.198H207.632C207.222 235.865 206.189 235.106 204.802 235.106C202.771 235.106 201.548 236.569 201.548 239.01C201.548 241.491 202.792 243.029 204.802 243.029C206.552 243.029 207.755 241.895 207.755 240.24V240.062H204.973V238.982H208.985V239.919ZM216.676 242.893V244H210.564V234.136H216.676V235.243H211.795V238.408H216.423V239.502H211.795V242.893H216.676ZM221.652 244.123C220.613 244.123 219.8 243.617 219.342 242.797H219.314V244H218.18V234.136H219.369V238.08H219.396C219.841 237.267 220.668 236.768 221.673 236.768C223.464 236.768 224.674 238.217 224.674 240.445C224.674 242.681 223.471 244.123 221.652 244.123ZM221.42 237.813C220.217 237.813 219.362 238.866 219.362 240.445C219.362 242.031 220.217 243.077 221.42 243.077C222.678 243.077 223.457 242.072 223.457 240.445C223.457 238.832 222.678 237.813 221.42 237.813Z" fill="#1B1B1B"/>
</g>
<path d="M37.1431 113.293C32.1138 113.293 28.9521 109.838 28.9521 104.187C28.9521 98.5713 32.1382 95.0923 37.1431 95.0923C41.2324 95.0923 44.3452 97.6436 44.7358 101.428H41.6353C41.2202 99.2183 39.4258 97.7656 37.1431 97.7656C34.1157 97.7656 32.1748 100.256 32.1748 104.187C32.1748 108.142 34.1035 110.62 37.1553 110.62C39.4868 110.62 41.1592 109.362 41.6475 107.238H44.7358C44.1865 111.01 41.3057 113.293 37.1431 113.293ZM46.5669 113V111.157L53.2686 102.478V102.429H46.6279V100.061H56.772V102.062L50.3389 110.571V110.632H56.8818V113H46.5669ZM64.3647 102.148C62.6558 102.148 61.4229 103.454 61.3008 105.261H67.3433C67.2822 103.43 66.1104 102.148 64.3647 102.148ZM67.3555 109.13H70.1997C69.8091 111.572 67.5386 113.256 64.4746 113.256C60.5928 113.256 58.249 110.705 58.249 106.579C58.249 102.49 60.6172 99.792 64.3525 99.792C68.0269 99.792 70.3218 102.343 70.3218 106.274V107.263H61.2764V107.446C61.2764 109.521 62.5459 110.913 64.5356 110.913C65.9517 110.913 67.0259 110.205 67.3555 109.13ZM72.0552 103.771C72.0552 101.403 74.1426 99.792 77.292 99.792C80.3315 99.792 82.3945 101.428 82.4678 103.82H79.6357C79.5381 102.709 78.647 102.026 77.231 102.026C75.8882 102.026 75.0093 102.661 75.0093 103.601C75.0093 104.333 75.5952 104.821 76.8647 105.126L79.1719 105.639C81.7598 106.25 82.7729 107.25 82.7729 109.167C82.7729 111.608 80.5146 113.256 77.2432 113.256C73.9961 113.256 71.9331 111.645 71.7256 109.191H74.7163C74.8994 110.375 75.8149 111.035 77.353 111.035C78.8301 111.035 79.7456 110.437 79.7456 109.472C79.7456 108.715 79.2695 108.312 78.0122 107.995L75.6562 107.446C73.2637 106.884 72.0552 105.639 72.0552 103.771ZM78.5371 98.2173H76.0591L78.708 94.4697H81.6133L78.5371 98.2173ZM96.1152 104.675H93.2466C93.0024 103.295 92.0381 102.258 90.4146 102.258C88.498 102.258 87.2651 103.869 87.2651 106.53C87.2651 109.24 88.5103 110.803 90.439 110.803C91.9771 110.803 92.978 109.924 93.2588 108.459H96.1274C95.8833 111.352 93.6494 113.256 90.4023 113.256C86.6182 113.256 84.1768 110.729 84.1768 106.53C84.1768 102.392 86.6182 99.792 90.3779 99.792C93.7959 99.792 95.9077 101.953 96.1152 104.675ZM91.501 98.2173H89.0229L91.6719 94.4697H94.5771L91.501 98.2173ZM100.131 116.723H97.7998L98.813 110.095H101.779L100.131 116.723ZM119.772 100.061V113H116.843V110.754H116.782C116.098 112.329 114.792 113.232 112.827 113.232C110.019 113.232 108.237 111.413 108.237 108.422V100.061H111.276V107.812C111.276 109.667 112.18 110.668 113.889 110.668C115.646 110.668 116.733 109.423 116.733 107.543V100.061H119.772ZM122.031 103.771C122.031 101.403 124.118 99.792 127.268 99.792C130.307 99.792 132.37 101.428 132.443 103.82H129.611C129.514 102.709 128.623 102.026 127.207 102.026C125.864 102.026 124.985 102.661 124.985 103.601C124.985 104.333 125.571 104.821 126.84 105.126L129.147 105.639C131.735 106.25 132.749 107.25 132.749 109.167C132.749 111.608 130.49 113.256 127.219 113.256C123.972 113.256 121.909 111.645 121.701 109.191H124.692C124.875 110.375 125.791 111.035 127.329 111.035C128.806 111.035 129.721 110.437 129.721 109.472C129.721 108.715 129.245 108.312 127.988 107.995L125.632 107.446C123.239 106.884 122.031 105.639 122.031 103.771ZM140.268 102.148C138.559 102.148 137.326 103.454 137.204 105.261H143.247C143.186 103.43 142.014 102.148 140.268 102.148ZM143.259 109.13H146.103C145.712 111.572 143.442 113.256 140.378 113.256C136.496 113.256 134.152 110.705 134.152 106.579C134.152 102.49 136.521 99.792 140.256 99.792C143.93 99.792 146.225 102.343 146.225 106.274V107.263H137.18V107.446C137.18 109.521 138.449 110.913 140.439 110.913C141.855 110.913 142.929 110.205 143.259 109.13ZM148.19 113V100.061H151.108V102.319H151.169C151.608 100.744 152.744 99.8408 154.27 99.8408C154.66 99.8408 155.002 99.9141 155.222 99.9629V102.709C154.965 102.612 154.501 102.539 153.989 102.539C152.268 102.539 151.23 103.649 151.23 105.468V113H148.19ZM157.7 95.3853H160.837L160.593 107.189H157.944L157.7 95.3853ZM159.262 113.244C158.273 113.244 157.492 112.475 157.492 111.511C157.492 110.546 158.273 109.79 159.262 109.79C160.263 109.79 161.044 110.546 161.044 111.511C161.044 112.475 160.263 113.244 159.262 113.244Z" fill="#252426"/>
<path d="M31.2969 57H28.9375V45.7266H31.2969V57ZM32.75 53.7891H35.0234C35.1328 54.7188 36.1016 55.3281 37.3516 55.3281C38.6094 55.3281 39.4688 54.7266 39.4688 53.8984C39.4688 53.1641 38.9297 52.7578 37.5703 52.4531L36.1016 52.1328C34.0234 51.6875 33 50.6328 33 48.9844C33 46.9062 34.7969 45.5312 37.3125 45.5312C39.9375 45.5312 41.5859 46.8828 41.625 48.9219H39.4141C39.3359 47.9688 38.5 47.3906 37.3203 47.3906C36.1562 47.3906 35.375 47.9453 35.375 48.7812C35.375 49.4766 35.9219 49.8672 37.2188 50.1641L38.5859 50.4531C40.8438 50.9375 41.8281 51.9062 41.8281 53.625C41.8281 55.8125 40.0547 57.1953 37.2578 57.1953C34.5469 57.1953 32.8203 55.9062 32.75 53.7891ZM48.3672 45.5312C51.7031 45.5312 53.8047 47.7734 53.8047 51.3672C53.8047 54.9531 51.7031 57.1953 48.3672 57.1953C45.0234 57.1953 42.9297 54.9531 42.9297 51.3672C42.9297 47.7734 45.0234 45.5312 48.3672 45.5312ZM48.3672 47.5C46.5234 47.5 45.3359 49 45.3359 51.3672C45.3359 53.7266 46.5156 55.2188 48.3672 55.2188C50.2109 55.2188 51.3906 53.7266 51.3906 51.3672C51.3906 49 50.2109 47.5 48.3672 47.5ZM55.3281 45.7266H59.6328C63.0156 45.7266 65.0078 47.7422 65.0078 51.3203C65.0078 54.8984 63.0156 57 59.6328 57H55.3281V45.7266ZM57.6875 47.6719V55.0469H59.3516C61.4609 55.0469 62.6016 53.7656 62.6016 51.3281C62.6016 48.9688 61.4297 47.6719 59.3516 47.6719H57.6875ZM66.3359 57V48.625H68.5391V50.1172H68.5859C69.0312 49.0781 69.9141 48.4688 71.2031 48.4688C73.0625 48.4688 74.1094 49.6406 74.1094 51.6016V57H71.8281V52.0781C71.8281 50.9844 71.3125 50.3594 70.2891 50.3594C69.2656 50.3594 68.6172 51.1094 68.6172 52.1953V57H66.3359ZM79.3984 57.1797C76.8672 57.1797 75.25 55.5547 75.25 52.8047C75.25 50.0938 76.8906 48.4453 79.3984 48.4453C81.9062 48.4453 83.5469 50.0859 83.5469 52.8047C83.5469 55.5625 81.9297 57.1797 79.3984 57.1797ZM79.3984 55.4375C80.5156 55.4375 81.2266 54.4922 81.2266 52.8125C81.2266 51.1484 80.5078 50.1875 79.3984 50.1875C78.2891 50.1875 77.5625 51.1484 77.5625 52.8125C77.5625 54.4922 78.2734 55.4375 79.3984 55.4375ZM85.3359 46.6953H87.6172V48.625H89.1641V50.3438H87.6172V54.3516C87.6172 54.9922 87.9297 55.2969 88.6016 55.2969C88.8047 55.2969 89.0156 55.2812 89.1562 55.2578V56.9375C88.9219 56.9922 88.5312 57.0312 88.0703 57.0312C86.1016 57.0312 85.3359 56.375 85.3359 54.7422V50.3438H84.1562V48.625H85.3359V46.6953ZM90.4531 57V48.625H92.7344V57H90.4531ZM91.5938 47.7031C90.9062 47.7031 90.375 47.1797 90.375 46.5234C90.375 45.8594 90.9062 45.3438 91.5938 45.3438C92.2812 45.3438 92.8125 45.8594 92.8125 46.5234C92.8125 47.1797 92.2812 47.7031 91.5938 47.7031ZM94.8672 57V50.3438H93.7266V48.6641H94.8672V48.0312C94.8672 46.3906 95.6406 45.625 97.625 45.625C98.0469 45.625 98.5234 45.6719 98.7891 45.7266V47.2344C98.625 47.2031 98.3984 47.1875 98.1719 47.1875C97.4219 47.1875 97.0938 47.5156 97.0938 48.1094V48.6641H98.7578V50.3438H97.1484V57H94.8672ZM101.031 60.1016C100.953 60.1016 100.242 60.0938 100.172 60.0781V58.3203C100.242 58.3359 100.656 58.3359 100.742 58.3359C101.578 58.3359 101.992 58.0703 102.148 57.4062C102.148 57.375 102.234 57.0391 102.219 57.0078L99.3047 48.625H101.812L103.594 55.1719H103.633L105.414 48.625H107.82L104.938 57.1875C104.219 59.3359 103.172 60.1016 101.031 60.1016Z" fill="#252426"/>
<path fill-rule="evenodd" clip-rule="evenodd" d="M356 49.1875C354.447 49.1875 353.188 50.4467 353.188 52C353.188 53.5533 354.447 54.8125 356 54.8125C357.553 54.8125 358.812 53.5533 358.812 52C358.812 50.4467 357.553 49.1875 356 49.1875ZM354.312 52C354.312 51.068 355.068 50.3125 356 50.3125C356.932 50.3125 357.687 51.068 357.687 52C357.687 52.9319 356.932 53.6875 356 53.6875C355.068 53.6875 354.312 52.9319 354.312 52Z" fill="#252426"/>
<path fill-rule="evenodd" clip-rule="evenodd" d="M355.981 43.9375C355.648 43.9375 355.369 43.9375 355.141 43.9531C354.903 43.9693 354.678 44.0043 354.461 44.0945C353.955 44.3038 353.554 44.7053 353.344 45.2107C353.235 45.4738 353.206 45.7511 353.195 46.0525C353.186 46.2947 353.063 46.4969 352.883 46.6011C352.702 46.7052 352.466 46.71 352.252 46.5968C351.985 46.4558 351.73 46.3427 351.448 46.3056C350.906 46.2342 350.357 46.3811 349.923 46.7141C349.736 46.8576 349.594 47.0347 349.461 47.2326C349.333 47.4226 349.194 47.6636 349.027 47.9523L349.008 47.9851C348.841 48.2738 348.702 48.5148 348.602 48.7204C348.497 48.9345 348.415 49.1465 348.384 49.3803C348.313 49.9226 348.46 50.4711 348.792 50.9051C348.966 51.1309 349.191 51.2951 349.447 51.4556C349.652 51.5846 349.766 51.7916 349.766 52C349.766 52.2083 349.652 52.4153 349.447 52.5443C349.191 52.7048 348.966 52.869 348.792 53.0949C348.459 53.5289 348.312 54.0773 348.384 54.6197C348.415 54.8534 348.497 55.0655 348.602 55.2795C348.702 55.4852 348.841 55.7261 349.008 56.0148L349.027 56.0477C349.194 56.3363 349.333 56.5773 349.461 56.7674C349.594 56.9652 349.736 57.1423 349.923 57.2858C350.357 57.6188 350.906 57.7658 351.448 57.6944C351.73 57.6572 351.985 57.5441 352.252 57.4032C352.466 57.2899 352.702 57.2947 352.883 57.3989C353.063 57.5031 353.186 57.7052 353.195 57.9476C353.206 58.2489 353.235 58.5262 353.344 58.7893C353.554 59.2946 353.955 59.6962 354.461 59.9055C354.678 59.9957 354.903 60.0307 355.141 60.0469C355.369 60.0625 355.648 60.0625 355.981 60.0625H356.019C356.352 60.0625 356.63 60.0625 356.859 60.0469C357.097 60.0307 357.321 59.9957 357.539 59.9055C358.045 59.6962 358.446 59.2946 358.655 58.7893C358.764 58.5262 358.794 58.2489 358.805 57.9475C358.814 57.7052 358.936 57.5031 359.117 57.3989C359.297 57.2947 359.534 57.2899 359.748 57.4031C360.015 57.5441 360.269 57.6572 360.552 57.6943C361.094 57.7657 361.643 57.6188 362.077 57.2858C362.264 57.1422 362.406 56.9652 362.539 56.7674C362.667 56.5773 362.806 56.3363 362.973 56.0477L362.992 56.0148C363.158 55.7261 363.297 55.4851 363.398 55.2794C363.503 55.0654 363.585 54.8534 363.616 54.6197C363.687 54.0773 363.54 53.5288 363.207 53.0948C363.034 52.8689 362.809 52.7048 362.553 52.5443C362.348 52.4153 362.234 52.2083 362.234 51.9999C362.234 51.7916 362.348 51.5846 362.553 51.4556C362.809 51.2952 363.034 51.131 363.207 50.9051C363.54 50.4711 363.687 49.9226 363.616 49.3803C363.585 49.1466 363.503 48.9346 363.398 48.7205C363.298 48.5148 363.158 48.2739 362.992 47.9852L362.973 47.9524C362.806 47.6637 362.667 47.4227 362.539 47.2326C362.406 47.0348 362.264 46.8577 362.077 46.7142C361.643 46.3812 361.094 46.2342 360.552 46.3056C360.269 46.3428 360.015 46.4559 359.748 46.5968C359.534 46.7101 359.297 46.7053 359.117 46.6011C358.937 46.4969 358.814 46.2947 358.805 46.0524C358.794 45.7511 358.764 45.4738 358.655 45.2107C358.446 44.7053 358.045 44.3038 357.539 44.0945C357.321 44.0043 357.097 43.9693 356.859 43.9531C356.63 43.9375 356.352 43.9375 356.019 43.9375H355.981ZM354.891 45.1339C354.949 45.1099 355.037 45.0878 355.217 45.0755C355.403 45.0628 355.643 45.0625 356 45.0625C356.357 45.0625 356.597 45.0628 356.782 45.0755C356.963 45.0878 357.051 45.1099 357.109 45.1339C357.338 45.229 357.521 45.4115 357.616 45.6412C357.646 45.7137 357.671 45.8267 357.681 46.0945C357.703 46.6888 358.01 47.261 358.554 47.5754C359.099 47.8898 359.748 47.8693 360.274 47.5914C360.511 47.4662 360.621 47.4312 360.699 47.421C360.945 47.3886 361.194 47.4554 361.392 47.6067C361.441 47.6448 361.505 47.7099 361.605 47.8601C361.709 48.0145 361.829 48.222 362.008 48.5312C362.186 48.8406 362.306 49.0483 362.388 49.2153C362.468 49.3779 362.492 49.4651 362.501 49.5272C362.533 49.7737 362.466 50.023 362.315 50.2202C362.267 50.2825 362.182 50.3605 361.955 50.5031C361.451 50.8195 361.109 51.3712 361.109 51.9999C361.109 52.6287 361.451 53.1805 361.955 53.4969C362.182 53.6395 362.267 53.7175 362.315 53.7797C362.466 53.977 362.533 54.2263 362.5 54.4728C362.492 54.5349 362.467 54.6221 362.388 54.7846C362.306 54.9516 362.186 55.1594 362.008 55.4687C361.829 55.778 361.709 55.9854 361.605 56.1398C361.504 56.29 361.441 56.3551 361.392 56.3932C361.194 56.5446 360.945 56.6114 360.699 56.579C360.621 56.5687 360.511 56.5337 360.274 56.4086C359.748 56.1306 359.099 56.1102 358.554 56.4246C358.01 56.739 357.703 57.3112 357.681 57.9055C357.671 58.1733 357.646 58.2863 357.616 58.3588C357.521 58.5884 357.338 58.771 357.109 58.8662C357.051 58.8901 356.963 58.9122 356.782 58.9245C356.597 58.9372 356.357 58.9375 356 58.9375C355.643 58.9375 355.403 58.9372 355.217 58.9245C355.037 58.9122 354.949 58.8901 354.891 58.8662C354.661 58.771 354.479 58.5884 354.384 58.3588C354.354 58.2863 354.329 58.1733 354.319 57.9055C354.297 57.3113 353.99 56.739 353.445 56.4246C352.901 56.1102 352.252 56.1307 351.726 56.4086C351.489 56.5338 351.379 56.5688 351.301 56.579C351.055 56.6114 350.805 56.5446 350.608 56.3933C350.558 56.3552 350.495 56.2901 350.394 56.1398C350.291 55.9855 350.17 55.778 349.992 55.4687C349.813 55.1594 349.694 54.9517 349.612 54.7847C349.532 54.6221 349.507 54.5349 349.499 54.4728C349.467 54.2263 349.534 53.977 349.685 53.7797C349.733 53.7176 349.818 53.6395 350.045 53.4969C350.549 53.1806 350.891 52.6288 350.891 52.0001C350.891 51.3712 350.549 50.8194 350.045 50.503C349.818 50.3604 349.733 50.2824 349.685 50.2202C349.534 50.0229 349.467 49.7736 349.499 49.5271C349.507 49.465 349.532 49.3778 349.612 49.2153C349.694 49.0482 349.813 48.8405 349.992 48.5312C350.17 48.2219 350.291 48.0145 350.394 47.8601C350.495 47.7099 350.558 47.6448 350.608 47.6067C350.805 47.4553 351.055 47.3885 351.301 47.4209C351.379 47.4312 351.489 47.4661 351.726 47.5914C352.252 47.8693 352.901 47.8897 353.445 47.5753C353.99 47.261 354.297 46.6888 354.319 46.0945C354.329 45.8267 354.354 45.7137 354.384 45.6412C354.479 45.4115 354.661 45.229 354.891 45.1339Z" fill="#252426"/>
<path d="M321.5 45.8125C323.916 45.8125 325.875 47.7713 325.875 50.1875V52.1472C325.875 52.5757 326.032 52.9894 326.317 53.3098L327.433 54.5656C328.186 55.4119 327.585 56.75 326.452 56.75H316.548C315.415 56.75 314.814 55.4119 315.567 54.5656L316.683 53.3098C316.968 52.9894 317.125 52.5757 317.125 52.1472L317.125 50.1875C317.125 47.7713 319.084 45.8125 321.5 45.8125ZM321.5 45.8125V43.625M320.625 59.375H322.375" stroke="#252426" stroke-width="1.2" stroke-linecap="round" stroke-linejoin="round"/>
</g>
<defs>
<filter id="filter0_d_1_18" x="15" y="313" width="160" height="158" filterUnits="userSpaceOnUse" color-interpolation-filters="sRGB">
<feFlood flood-opacity="0" result="BackgroundImageFix"/>
<feColorMatrix in="SourceAlpha" type="matrix" values="0 0 0 0 0 0 0 0 0 0 0 0 0 0 0 0 0 0 127 0" result="hardAlpha"/>
<feOffset dy="4"/>
<feGaussianBlur stdDeviation="2"/>
<feComposite in2="hardAlpha" operator="out"/>
<feColorMatrix type="matrix" values="0 0 0 0 0 0 0 0 0 0 0 0 0 0 0 0 0 0 0.25 0"/>
<feBlend mode="normal" in2="BackgroundImageFix" result="effect1_dropShadow_1_18"/>
<feBlend mode="normal" in="SourceGraphic" in2="effect1_dropShadow_1_18" result="shape"/>
</filter>
<filter id="filter1_d_1_18" x="187" y="313" width="160" height="158" filterUnits="userSpaceOnUse" color-interpolation-filters="sRGB">
<feFlood flood-opacity="0" result="BackgroundImageFix"/>
<feColorMatrix in="SourceAlpha" type="matrix" values="0 0 0 0 0 0 0 0 0 0 0 0 0 0 0 0 0 0 127 0" result="hardAlpha"/>
<feOffset dy="4"/>
<feGaussianBlur stdDeviation="2"/>
<feComposite in2="hardAlpha" operator="out"/>
<feColorMatrix type="matrix" values="0 0 0 0 0 0 0 0 0 0 0 0 0 0 0 0 0 0 0.25 0"/>
<feBlend mode="normal" in2="BackgroundImageFix" result="effect1_dropShadow_1_18"/>
<feBlend mode="normal" in="SourceGraphic" in2="effect1_dropShadow_1_18" result="shape"/>
</filter>
<filter id="filter2_d_1_18" x="359" y="313" width="160" height="158" filterUnits="userSpaceOnUse" color-interpolation-filters="sRGB">
<feFlood flood-opacity="0" result="BackgroundImageFix"/>
<feColorMatrix in="SourceAlpha" type="matrix" values="0 0 0 0 0 0 0 0 0 0 0 0 0 0 0 0 0 0 127 0" result="hardAlpha"/>
<feOffset dy="4"/>
<feGaussianBlur stdDeviation="2"/>
<feComposite in2="hardAlpha" operator="out"/>
<feColorMatrix type="matrix" values="0 0 0 0 0 0 0 0 0 0 0 0 0 0 0 0 0 0 0.25 0"/>
<feBlend mode="normal" in2="BackgroundImageFix" result="effect1_dropShadow_1_18"/>
<feBlend mode="normal" in="SourceGraphic" in2="effect1_dropShadow_1_18" result="shape"/>
</filter>
<filter id="filter3_d_1_18" x="15" y="160" width="363" height="109" filterUnits="userSpaceOnUse" color-interpolation-filters="sRGB">
<feFlood flood-opacity="0" result="BackgroundImageFix"/>
<feColorMatrix in="SourceAlpha" type="matrix" values="0 0 0 0 0 0 0 0 0 0 0 0 0 0 0 0 0 0 127 0" result="hardAlpha"/>
<feOffset dy="4"/>
<feGaussianBlur stdDeviation="2"/>
<feComposite in2="hardAlpha" operator="out"/>
<feColorMatrix type="matrix" values="0 0 0 0 0 0 0 0 0 0 0 0 0 0 0 0 0 0 0.25 0"/>
<feBlend mode="normal" in2="BackgroundImageFix" result="effect1_dropShadow_1_18"/>
<feBlend mode="normal" in="SourceGraphic" in2="effect1_dropShadow_1_18" result="shape"/>
</filter>
<clipPath id="clip0_1_18">
<rect width="393" height="852" rx="40" fill="white"/>
</clipPath>
</defs>
</svg>
