<svg width="393" height="852" viewBox="0 0 393 852" fill="none" xmlns="http://www.w3.org/2000/svg">
<rect width="393" height="852" rx="40" fill="#EBE5DA"/>
<path d="M155.76 51.9082V60.8047C155.76 62.7285 156.941 64.0371 159.031 64.0371C161.121 64.0371 162.312 62.7285 162.312 60.8047V51.9082H164.822V61.0293C164.822 64.1055 162.605 66.2344 159.031 66.2344C155.467 66.2344 153.24 64.1055 153.24 61.0293V51.9082H155.76ZM166.893 58.6172C166.893 56.7227 168.562 55.4336 171.082 55.4336C173.514 55.4336 175.164 56.7422 175.223 58.6562H172.957C172.879 57.7676 172.166 57.2207 171.033 57.2207C169.959 57.2207 169.256 57.7285 169.256 58.4805C169.256 59.0664 169.725 59.457 170.74 59.7012L172.586 60.1113C174.656 60.5996 175.467 61.4004 175.467 62.9336C175.467 64.8867 173.66 66.2051 171.043 66.2051C168.445 66.2051 166.795 64.916 166.629 62.9531H169.021C169.168 63.9004 169.9 64.4277 171.131 64.4277C172.312 64.4277 173.045 63.9492 173.045 63.1777C173.045 62.5723 172.664 62.25 171.658 61.9961L169.773 61.5566C167.859 61.1074 166.893 60.1113 166.893 58.6172ZM177.693 53.2266H180.125V55.6484H182.078V57.5234H180.125V62.9043C180.125 63.7539 180.516 64.1445 181.375 64.1445C181.6 64.1445 181.912 64.125 182.068 64.0957V65.9512C181.805 66.0098 181.326 66.0488 180.809 66.0488C178.572 66.0488 177.693 65.2578 177.693 63.2461V57.5234H176.209V55.6484H177.693V53.2266ZM187.381 64.3301C188.758 64.3301 189.861 63.4121 189.861 62.1621V61.3711L187.469 61.5176C186.297 61.5957 185.623 62.123 185.623 62.9434C185.623 63.793 186.326 64.3301 187.381 64.3301ZM186.648 66.166C184.646 66.166 183.191 64.9062 183.191 63.041C183.191 61.2051 184.607 60.1016 187.127 59.9453L189.861 59.7891V59.0469C189.861 57.9629 189.129 57.3379 187.928 57.3379C186.775 57.3379 186.043 57.8945 185.887 58.7539H183.631C183.738 56.8203 185.389 55.4336 188.025 55.4336C190.594 55.4336 192.264 56.791 192.264 58.8711V66H189.92V64.3496H189.871C189.275 65.4727 187.977 66.166 186.648 66.166ZM208.23 55.6484L205.428 66H202.869L200.828 58.4316H200.779L198.748 66H196.209L193.406 55.6484H195.848L197.596 63.5977H197.645L199.666 55.6484H202L204.021 63.5977H204.08L205.828 55.6484H208.23ZM209.5 66V55.6484H211.932V66H209.5ZM210.711 54.291C209.959 54.291 209.363 53.7051 209.363 52.9727C209.363 52.2305 209.959 51.6445 210.711 51.6445C211.473 51.6445 212.068 52.2305 212.068 52.9727C212.068 53.7051 211.473 54.291 210.711 54.291ZM218.436 57.3184C217.068 57.3184 216.082 58.3633 215.984 59.8086H220.818C220.77 58.3438 219.832 57.3184 218.436 57.3184ZM220.828 62.9043H223.104C222.791 64.8574 220.975 66.2051 218.523 66.2051C215.418 66.2051 213.543 64.1641 213.543 60.8633C213.543 57.5918 215.438 55.4336 218.426 55.4336C221.365 55.4336 223.201 57.4746 223.201 60.6191V61.4102H215.965V61.5566C215.965 63.2168 216.98 64.3301 218.572 64.3301C219.705 64.3301 220.564 63.7637 220.828 62.9043ZM224.773 66V55.6484H227.107V57.4258H227.156C227.713 56.1953 228.816 55.4531 230.408 55.4531C232.693 55.4531 233.992 56.918 233.992 59.3105V66H231.561V59.7988C231.561 58.334 230.877 57.5137 229.49 57.5137C228.094 57.5137 227.205 58.5195 227.205 60.0039V66H224.773ZM236.004 66V55.6484H238.436V66H236.004ZM237.215 54.291C236.463 54.291 235.867 53.7051 235.867 52.9727C235.867 52.2305 236.463 51.6445 237.215 51.6445C237.977 51.6445 238.572 52.2305 238.572 52.9727C238.572 53.7051 237.977 54.291 237.215 54.291ZM244.256 64.3301C245.633 64.3301 246.736 63.4121 246.736 62.1621V61.3711L244.344 61.5176C243.172 61.5957 242.498 62.123 242.498 62.9434C242.498 63.793 243.201 64.3301 244.256 64.3301ZM243.523 66.166C241.521 66.166 240.066 64.9062 240.066 63.041C240.066 61.2051 241.482 60.1016 244.002 59.9453L246.736 59.7891V59.0469C246.736 57.9629 246.004 57.3379 244.803 57.3379C243.65 57.3379 242.918 57.8945 242.762 58.7539H240.506C240.613 56.8203 242.264 55.4336 244.9 55.4336C247.469 55.4336 249.139 56.791 249.139 58.8711V66H246.795V64.3496H246.746C246.15 65.4727 244.852 66.166 243.523 66.166Z" fill="#817359"/>
<path fill-rule="evenodd" clip-rule="evenodd" d="M32.6827 50.6505C33.1057 51.0736 33.1057 51.7595 32.6827 52.1826L26.9487 57.9166H41.6667C42.265 57.9166 42.75 58.4016 42.75 58.9999C42.75 59.5982 42.265 60.0833 41.6667 60.0833H26.9487L32.6827 65.8172C33.1057 66.2403 33.1057 66.9262 32.6827 67.3493C32.2597 67.7723 31.5737 67.7723 31.1506 67.3493L23.5673 59.7659C23.3641 59.5628 23.25 59.2872 23.25 58.9999C23.25 58.7126 23.3641 58.437 23.5673 58.2339L31.1506 50.6505C31.5737 50.2275 32.2597 50.2275 32.6827 50.6505Z" fill="#817359"/>
<g filter="url(#filter0_d_86_2)">
<rect x="19" y="105" width="355" height="64" rx="20" fill="#E3D7C1"/>
<path d="M46.0723 141.164C43.3037 141.164 41.5537 139.209 41.5537 136.064C41.5537 132.94 43.3174 130.972 46.0723 130.972C48.3076 130.972 49.9961 132.346 50.2559 134.403H48.7383C48.4648 133.139 47.4121 132.312 46.0723 132.312C44.2812 132.312 43.1191 133.781 43.1191 136.064C43.1191 138.368 44.2676 139.824 46.0791 139.824C47.4531 139.824 48.4307 139.12 48.7383 137.931H50.2627C49.8867 139.968 48.3418 141.164 46.0723 141.164ZM51.3154 141V140.05L55.1504 135.012V134.984H51.3428V133.809H56.8457V134.82L53.1064 139.797V139.824H56.8867V141H51.3154ZM60.7217 139.954C61.7539 139.954 62.5605 139.243 62.5605 138.307V137.739L60.79 137.849C59.9082 137.91 59.4092 138.3 59.4092 138.915C59.4092 139.544 59.9287 139.954 60.7217 139.954ZM60.3115 141.123C58.9033 141.123 57.9189 140.248 57.9189 138.956C57.9189 137.698 58.8828 136.926 60.5918 136.83L62.5605 136.714V136.16C62.5605 135.36 62.0205 134.882 61.1182 134.882C60.2637 134.882 59.7305 135.292 59.6006 135.935H58.2061C58.2881 134.636 59.3955 133.679 61.1729 133.679C62.916 133.679 64.0303 134.602 64.0303 136.044V141H62.6152V139.817H62.5811C62.1641 140.617 61.2549 141.123 60.3115 141.123ZM65.4658 141V133.809H66.874V135.032H66.9082C67.1475 134.191 67.79 133.692 68.6377 133.692C68.8496 133.692 69.0342 133.727 69.1436 133.747V135.121C69.0273 135.073 68.7676 135.039 68.4805 135.039C67.5303 135.039 66.9424 135.675 66.9424 136.693V141H65.4658ZM70.0596 141V133.809H71.4678V135.012H71.502C71.8916 134.191 72.6572 133.686 73.7646 133.686C75.3506 133.686 76.2598 134.697 76.2598 136.345V141H74.7764V136.632C74.7764 135.552 74.2705 134.957 73.2451 134.957C72.2061 134.957 71.5361 135.695 71.5361 136.81V141H70.0596ZM78.3994 143.68C78.2832 143.68 77.9072 143.666 77.7979 143.646V142.449C77.9072 142.477 78.1533 142.477 78.2764 142.477C78.9668 142.477 79.3291 142.189 79.5547 141.451C79.5547 141.438 79.6846 141.014 79.6846 141.007L77.0869 133.809H78.6865L80.5117 139.66H80.5322L82.3574 133.809H83.916L81.2158 141.376C80.6006 143.119 79.8965 143.68 78.3994 143.68ZM87.6279 141V133.809H89.0361V135.019H89.0703C89.3916 134.219 90.1436 133.686 91.1143 133.686C92.1123 133.686 92.8369 134.198 93.124 135.094H93.1582C93.5273 134.219 94.375 133.686 95.4004 133.686C96.8223 133.686 97.752 134.629 97.752 136.058V141H96.2686V136.413C96.2686 135.483 95.7695 134.95 94.8945 134.95C94.0195 134.95 93.4111 135.6 93.4111 136.509V141H91.9619V136.304C91.9619 135.477 91.4355 134.95 90.6016 134.95C89.7266 134.95 89.1045 135.634 89.1045 136.557V141H87.6279ZM102.271 141.137C100.213 141.137 98.8594 139.722 98.8594 137.404C98.8594 135.094 100.22 133.679 102.271 133.679C104.321 133.679 105.682 135.094 105.682 137.404C105.682 139.722 104.328 141.137 102.271 141.137ZM102.271 139.92C103.433 139.92 104.178 139.004 104.178 137.404C104.178 135.812 103.426 134.896 102.271 134.896C101.115 134.896 100.363 135.812 100.363 137.404C100.363 139.004 101.115 139.92 102.271 139.92ZM107.254 132.106H108.737V133.809H110.104V134.978H108.737V138.942C108.737 139.564 109.011 139.845 109.612 139.845C109.763 139.845 110.002 139.831 110.098 139.811V140.979C109.934 141.021 109.605 141.048 109.277 141.048C107.821 141.048 107.254 140.494 107.254 139.106V134.978H106.208V133.809H107.254V132.106ZM112.032 143.68C111.916 143.68 111.54 143.666 111.431 143.646V142.449C111.54 142.477 111.786 142.477 111.909 142.477C112.6 142.477 112.962 142.189 113.188 141.451C113.188 141.438 113.317 141.014 113.317 141.007L110.72 133.809H112.319L114.145 139.66H114.165L115.99 133.809H117.549L114.849 141.376C114.233 143.119 113.529 143.68 112.032 143.68ZM127.946 133.809L125.978 141H124.439L122.929 135.613H122.895L121.397 141H119.873L117.897 133.809H119.374L120.687 139.469H120.714L122.211 133.809H123.633L125.137 139.469H125.171L126.483 133.809H127.946Z" fill="#463B26"/>
<g clip-path="url(#clip0_86_2)">
<rect x="305" y="122" width="54" height="30" rx="15" fill="#D6C6AC"/>
<g filter="url(#filter1_d_86_2)">
<circle cx="320" cy="137" r="12" fill="#EBE5DA"/>
</g>
</g>
</g>
<g filter="url(#filter2_d_86_2)">
<rect x="19" y="189" width="355" height="64" rx="20" fill="#E3D7C1"/>
<path d="M41.4717 222.252H42.9824C43.0918 223.229 44.042 223.872 45.3408 223.872C46.585 223.872 47.4805 223.229 47.4805 222.348C47.4805 221.582 46.9404 221.124 45.6621 220.81L44.3838 220.502C42.5723 220.064 41.7314 219.217 41.7314 217.843C41.7314 216.141 43.2148 214.972 45.3203 214.972C47.4053 214.972 48.834 216.141 48.8818 217.843H47.3916C47.3027 216.858 46.4893 216.264 45.2998 216.264C44.1104 216.264 43.2969 216.865 43.2969 217.74C43.2969 218.438 43.8164 218.848 45.0879 219.162L46.1748 219.429C48.1982 219.907 49.0391 220.721 49.0391 222.163C49.0391 224.009 47.5693 225.164 45.2314 225.164C43.0439 225.164 41.5674 224.036 41.4717 222.252ZM50.666 216.106H52.1494V217.809H53.5166V218.978H52.1494V222.942C52.1494 223.564 52.4229 223.845 53.0244 223.845C53.1748 223.845 53.4141 223.831 53.5098 223.811V224.979C53.3457 225.021 53.0176 225.048 52.6895 225.048C51.2334 225.048 50.666 224.494 50.666 223.106V218.978H49.6201V217.809H50.666V216.106ZM57.1396 223.954C58.1719 223.954 58.9785 223.243 58.9785 222.307V221.739L57.208 221.849C56.3262 221.91 55.8271 222.3 55.8271 222.915C55.8271 223.544 56.3467 223.954 57.1396 223.954ZM56.7295 225.123C55.3213 225.123 54.3369 224.248 54.3369 222.956C54.3369 221.698 55.3008 220.926 57.0098 220.83L58.9785 220.714V220.16C58.9785 219.36 58.4385 218.882 57.5361 218.882C56.6816 218.882 56.1484 219.292 56.0186 219.935H54.624C54.7061 218.636 55.8135 217.679 57.5908 217.679C59.334 217.679 60.4482 218.602 60.4482 220.044V225H59.0332V223.817H58.999C58.582 224.617 57.6729 225.123 56.7295 225.123ZM62.3145 216.106H63.7979V217.809H65.165V218.978H63.7979V222.942C63.7979 223.564 64.0713 223.845 64.6729 223.845C64.8232 223.845 65.0625 223.831 65.1582 223.811V224.979C64.9941 225.021 64.666 225.048 64.3379 225.048C62.8818 225.048 62.3145 224.494 62.3145 223.106V218.978H61.2686V217.809H62.3145V216.106ZM72.5479 217.809V225H71.1328V223.783H71.0986C70.7021 224.645 69.9707 225.13 68.8701 225.13C67.3047 225.13 66.3477 224.111 66.3477 222.464V217.809H67.8242V222.177C67.8242 223.271 68.3438 223.858 69.3623 223.858C70.4287 223.858 71.0713 223.12 71.0713 221.999V217.809H72.5479ZM73.8809 219.846C73.8809 218.561 75.0156 217.679 76.6973 217.679C78.2969 217.679 79.418 218.574 79.4658 219.853H78.0781C78.0098 219.203 77.4834 218.8 76.6562 218.8C75.8564 218.8 75.3232 219.189 75.3232 219.757C75.3232 220.201 75.6787 220.502 76.4238 220.687L77.6338 220.967C79.083 221.315 79.6299 221.862 79.6299 222.922C79.6299 224.234 78.4062 225.137 76.6426 225.137C74.9404 225.137 73.8125 224.255 73.6963 222.936H75.1592C75.2754 223.626 75.8086 224.009 76.7109 224.009C77.5996 224.009 78.1465 223.64 78.1465 223.059C78.1465 222.601 77.873 222.348 77.1211 222.156L75.8359 221.842C74.5371 221.527 73.8809 220.851 73.8809 219.846ZM87.3682 217.692C89.1934 217.692 90.3965 219.128 90.3965 221.404C90.3965 223.681 89.2002 225.123 87.3955 225.123C86.3633 225.123 85.543 224.617 85.1328 223.817H85.0986V227.379H83.6221V217.809H85.0508V219.046H85.0781C85.502 218.219 86.3291 217.692 87.3682 217.692ZM86.9785 223.872C88.1475 223.872 88.8789 222.915 88.8789 221.404C88.8789 219.9 88.1475 218.937 86.9785 218.937C85.8506 218.937 85.0918 219.921 85.0918 221.404C85.0918 222.901 85.8438 223.872 86.9785 223.872ZM94.6279 225.137C92.5703 225.137 91.2168 223.722 91.2168 221.404C91.2168 219.094 92.5771 217.679 94.6279 217.679C96.6787 217.679 98.0391 219.094 98.0391 221.404C98.0391 223.722 96.6855 225.137 94.6279 225.137ZM94.6279 223.92C95.79 223.92 96.5352 223.004 96.5352 221.404C96.5352 219.812 95.7832 218.896 94.6279 218.896C93.4727 218.896 92.7207 219.812 92.7207 221.404C92.7207 223.004 93.4727 223.92 94.6279 223.92ZM108.642 217.809L106.673 225H105.135L103.624 219.613H103.59L102.093 225H100.568L98.5928 217.809H100.069L101.382 223.469H101.409L102.906 217.809H104.328L105.832 223.469H105.866L107.179 217.809H108.642ZM109.592 225V217.809H111.068V225H109.592ZM110.33 216.756C109.858 216.756 109.476 216.38 109.476 215.915C109.476 215.443 109.858 215.067 110.33 215.067C110.809 215.067 111.191 215.443 111.191 215.915C111.191 216.38 110.809 216.756 110.33 216.756ZM115.095 223.954C116.127 223.954 116.934 223.243 116.934 222.307V221.739L115.163 221.849C114.281 221.91 113.782 222.3 113.782 222.915C113.782 223.544 114.302 223.954 115.095 223.954ZM114.685 225.123C113.276 225.123 112.292 224.248 112.292 222.956C112.292 221.698 113.256 220.926 114.965 220.83L116.934 220.714V220.16C116.934 219.36 116.394 218.882 115.491 218.882C114.637 218.882 114.104 219.292 113.974 219.935H112.579C112.661 218.636 113.769 217.679 115.546 217.679C117.289 217.679 118.403 218.602 118.403 220.044V225H116.988V223.817H116.954C116.537 224.617 115.628 225.123 114.685 225.123ZM122.539 225.123C120.721 225.123 119.518 223.674 119.518 221.404C119.518 219.135 120.721 217.692 122.525 217.692C123.558 217.692 124.378 218.212 124.781 219.005H124.809V215.136H126.292V225H124.856V223.776H124.829C124.405 224.597 123.585 225.123 122.539 225.123ZM122.929 218.937C121.76 218.937 121.028 219.894 121.028 221.404C121.028 222.922 121.76 223.872 122.929 223.872C124.063 223.872 124.822 222.908 124.822 221.404C124.822 219.914 124.063 218.937 122.929 218.937ZM130.899 225.137C128.842 225.137 127.488 223.722 127.488 221.404C127.488 219.094 128.849 217.679 130.899 217.679C132.95 217.679 134.311 219.094 134.311 221.404C134.311 223.722 132.957 225.137 130.899 225.137ZM130.899 223.92C132.062 223.92 132.807 223.004 132.807 221.404C132.807 219.812 132.055 218.896 130.899 218.896C129.744 218.896 128.992 219.812 128.992 221.404C128.992 223.004 129.744 223.92 130.899 223.92ZM135.452 225V217.809H136.86V219.019H136.895C137.216 218.219 137.968 217.686 138.938 217.686C139.937 217.686 140.661 218.198 140.948 219.094H140.982C141.352 218.219 142.199 217.686 143.225 217.686C144.646 217.686 145.576 218.629 145.576 220.058V225H144.093V220.413C144.093 219.483 143.594 218.95 142.719 218.95C141.844 218.95 141.235 219.6 141.235 220.509V225H139.786V220.304C139.786 219.477 139.26 218.95 138.426 218.95C137.551 218.95 136.929 219.634 136.929 220.557V225H135.452ZM147.053 225V217.809H148.529V225H147.053ZM147.791 216.756C147.319 216.756 146.937 216.38 146.937 215.915C146.937 215.443 147.319 215.067 147.791 215.067C148.27 215.067 148.652 215.443 148.652 215.915C148.652 216.38 148.27 216.756 147.791 216.756ZM153.048 218.868C152.016 218.868 151.291 219.654 151.216 220.741H154.812C154.777 219.641 154.08 218.868 153.048 218.868ZM154.805 222.888H156.206C156.001 224.2 154.757 225.137 153.109 225.137C150.997 225.137 149.719 223.708 149.719 221.438C149.719 219.183 151.018 217.679 153.048 217.679C155.044 217.679 156.288 219.087 156.288 221.268V221.773H151.209V221.862C151.209 223.113 151.961 223.94 153.144 223.94C153.984 223.94 154.606 223.517 154.805 222.888ZM157.437 225V217.809H158.845V219.012H158.879C159.269 218.191 160.034 217.686 161.142 217.686C162.728 217.686 163.637 218.697 163.637 220.345V225H162.153V220.632C162.153 219.552 161.647 218.957 160.622 218.957C159.583 218.957 158.913 219.695 158.913 220.81V225H157.437ZM161.155 216.783H159.918L161.381 214.712H162.864L161.155 216.783Z" fill="#463B26"/>
<g clip-path="url(#clip1_86_2)">
<rect x="305" y="206" width="54" height="30" rx="15" fill="#D6C6AC"/>
<g filter="url(#filter3_d_86_2)">
<circle cx="320" cy="221" r="12" fill="#EBE5DA"/>
</g>
</g>
</g>
<g filter="url(#filter4_d_86_2)">
<rect x="19" y="751" width="355" height="64" rx="20" fill="#E36B51"/>
<path d="M172.508 779.824L169.915 789H167.779L164.378 776.317H166.733L168.931 785.924H169.001L171.55 776.317H173.554L176.103 785.924H176.173L178.37 776.317H180.726L177.324 789H175.188L172.596 779.824H172.508ZM182.879 792.463C182.756 792.463 182.132 792.454 182.018 792.428V790.696C182.132 790.723 182.519 790.731 182.65 790.731C183.556 790.731 184.021 790.389 184.268 789.527C184.268 789.501 184.399 789.035 184.391 789.009L181.077 779.684H183.468L185.665 787.137H185.7L187.897 779.684H190.2L186.834 789.369C186.034 791.681 185.006 792.463 182.879 792.463ZM191.308 789V776.317H193.496V789H191.308ZM199.481 789.185C196.748 789.185 194.973 787.365 194.973 784.342C194.973 781.336 196.766 779.49 199.481 779.49C202.197 779.49 203.99 781.327 203.99 784.342C203.99 787.365 202.215 789.185 199.481 789.185ZM199.481 787.453C200.87 787.453 201.767 786.328 201.767 784.342C201.767 782.364 200.87 781.23 199.481 781.23C198.102 781.23 197.196 782.364 197.196 784.342C197.196 786.328 198.093 787.453 199.481 787.453ZM209.51 787.269C210.907 787.269 211.812 786.135 211.812 784.315C211.812 782.505 210.907 781.327 209.51 781.327C208.13 781.327 207.251 782.487 207.251 784.315C207.251 786.161 208.13 787.269 209.51 787.269ZM209.501 792.516C207.198 792.516 205.546 791.338 205.326 789.703H207.497C207.734 790.415 208.534 790.898 209.571 790.898C210.995 790.898 211.812 790.099 211.812 788.912V787.339H211.76C211.276 788.341 210.178 789.009 208.842 789.009C206.539 789.009 205.01 787.207 205.01 784.307C205.01 781.362 206.504 779.525 208.886 779.525C210.213 779.525 211.285 780.211 211.821 781.283H211.856V779.684H214.001V788.851C214.001 791.074 212.217 792.516 209.501 792.516ZM224.047 779.684V789H221.938V787.383H221.894C221.401 788.517 220.461 789.167 219.046 789.167C217.024 789.167 215.741 787.857 215.741 785.704V779.684H217.93V785.265C217.93 786.601 218.58 787.321 219.811 787.321C221.076 787.321 221.858 786.425 221.858 785.071V779.684H224.047ZM228.081 779.684V789.439C228.081 791.329 227.018 792.27 224.899 792.27C224.768 792.27 224.434 792.261 224.354 792.252V790.582C224.398 790.591 224.592 790.591 224.645 790.591C225.55 790.591 225.893 790.266 225.893 789.404V779.684H228.081ZM226.982 778.462C226.306 778.462 225.77 777.935 225.77 777.275C225.77 776.607 226.306 776.08 226.982 776.08C227.668 776.08 228.204 776.607 228.204 777.275C228.204 777.935 227.668 778.462 226.982 778.462Z" fill="#FDFAF4"/>
</g>
<defs>
<filter id="filter0_d_86_2" x="15" y="105" width="363" height="72" filterUnits="userSpaceOnUse" color-interpolation-filters="sRGB">
<feFlood flood-opacity="0" result="BackgroundImageFix"/>
<feColorMatrix in="SourceAlpha" type="matrix" values="0 0 0 0 0 0 0 0 0 0 0 0 0 0 0 0 0 0 127 0" result="hardAlpha"/>
<feOffset dy="4"/>
<feGaussianBlur stdDeviation="2"/>
<feComposite in2="hardAlpha" operator="out"/>
<feColorMatrix type="matrix" values="0 0 0 0 0 0 0 0 0 0 0 0 0 0 0 0 0 0 0.25 0"/>
<feBlend mode="normal" in2="BackgroundImageFix" result="effect1_dropShadow_86_2"/>
<feBlend mode="normal" in="SourceGraphic" in2="effect1_dropShadow_86_2" result="shape"/>
</filter>
<filter id="filter1_d_86_2" x="307" y="121" width="32" height="32" filterUnits="userSpaceOnUse" color-interpolation-filters="sRGB">
<feFlood flood-opacity="0" result="BackgroundImageFix"/>
<feColorMatrix in="SourceAlpha" type="matrix" values="0 0 0 0 0 0 0 0 0 0 0 0 0 0 0 0 0 0 127 0" result="hardAlpha"/>
<feOffset dx="3"/>
<feGaussianBlur stdDeviation="2"/>
<feComposite in2="hardAlpha" operator="out"/>
<feColorMatrix type="matrix" values="0 0 0 0 0 0 0 0 0 0 0 0 0 0 0 0 0 0 0.11 0"/>
<feBlend mode="normal" in2="BackgroundImageFix" result="effect1_dropShadow_86_2"/>
<feBlend mode="normal" in="SourceGraphic" in2="effect1_dropShadow_86_2" result="shape"/>
</filter>
<filter id="filter2_d_86_2" x="15" y="189" width="363" height="72" filterUnits="userSpaceOnUse" color-interpolation-filters="sRGB">
<feFlood flood-opacity="0" result="BackgroundImageFix"/>
<feColorMatrix in="SourceAlpha" type="matrix" values="0 0 0 0 0 0 0 0 0 0 0 0 0 0 0 0 0 0 127 0" result="hardAlpha"/>
<feOffset dy="4"/>
<feGaussianBlur stdDeviation="2"/>
<feComposite in2="hardAlpha" operator="out"/>
<feColorMatrix type="matrix" values="0 0 0 0 0 0 0 0 0 0 0 0 0 0 0 0 0 0 0.25 0"/>
<feBlend mode="normal" in2="BackgroundImageFix" result="effect1_dropShadow_86_2"/>
<feBlend mode="normal" in="SourceGraphic" in2="effect1_dropShadow_86_2" result="shape"/>
</filter>
<filter id="filter3_d_86_2" x="307" y="205" width="32" height="32" filterUnits="userSpaceOnUse" color-interpolation-filters="sRGB">
<feFlood flood-opacity="0" result="BackgroundImageFix"/>
<feColorMatrix in="SourceAlpha" type="matrix" values="0 0 0 0 0 0 0 0 0 0 0 0 0 0 0 0 0 0 127 0" result="hardAlpha"/>
<feOffset dx="3"/>
<feGaussianBlur stdDeviation="2"/>
<feComposite in2="hardAlpha" operator="out"/>
<feColorMatrix type="matrix" values="0 0 0 0 0 0 0 0 0 0 0 0 0 0 0 0 0 0 0.11 0"/>
<feBlend mode="normal" in2="BackgroundImageFix" result="effect1_dropShadow_86_2"/>
<feBlend mode="normal" in="SourceGraphic" in2="effect1_dropShadow_86_2" result="shape"/>
</filter>
<filter id="filter4_d_86_2" x="15" y="751" width="363" height="72" filterUnits="userSpaceOnUse" color-interpolation-filters="sRGB">
<feFlood flood-opacity="0" result="BackgroundImageFix"/>
<feColorMatrix in="SourceAlpha" type="matrix" values="0 0 0 0 0 0 0 0 0 0 0 0 0 0 0 0 0 0 127 0" result="hardAlpha"/>
<feOffset dy="4"/>
<feGaussianBlur stdDeviation="2"/>
<feComposite in2="hardAlpha" operator="out"/>
<feColorMatrix type="matrix" values="0 0 0 0 0 0 0 0 0 0 0 0 0 0 0 0 0 0 0.25 0"/>
<feBlend mode="normal" in2="BackgroundImageFix" result="effect1_dropShadow_86_2"/>
<feBlend mode="normal" in="SourceGraphic" in2="effect1_dropShadow_86_2" result="shape"/>
</filter>
<clipPath id="clip0_86_2">
<rect x="305" y="122" width="54" height="30" rx="15" fill="white"/>
</clipPath>
<clipPath id="clip1_86_2">
<rect x="305" y="206" width="54" height="30" rx="15" fill="white"/>
</clipPath>
</defs>
</svg>
